<?xml version="1.0" encoding="utf-8"?>
<!-- Generator: Adobe Illustrator 27.4.0, SVG Export Plug-In . SVG Version: 6.00 Build 0)  -->
<svg version="1.1" id="Layer_1" xmlns="http://www.w3.org/2000/svg" xmlns:xlink="http://www.w3.org/1999/xlink" x="0px" y="0px"
	 width="500px" height="500px" viewBox="0 0 500 500" style="enable-background:new 0 0 500 500;" xml:space="preserve">
<style type="text/css">
	.st0{opacity:0.889;fill-rule:evenodd;clip-rule:evenodd;fill:#FFFFFF;enable-background:new    ;}
	.st1{opacity:0.899;fill-rule:evenodd;clip-rule:evenodd;fill:#FFFFFF;enable-background:new    ;}
</style>
<g>
	<path class="st0" d="M239.5,74.5c26.1-2.5,46.3,7.2,60.5,29c13,28.1,8.5,53-13.5,74.5c-24.7,16.7-49.3,16.7-74,0
		c-23.1-22.9-26.9-48.7-11.5-77.5C211,87.4,223.8,78.8,239.5,74.5z M243.5,89.5c26.4-1.4,42.6,10.6,48.5,36
		c1.7,30.1-12.5,47.1-42.5,51c-30.5-4-44.7-21.3-42.5-52c1.6-5.5,3.6-10.9,6-16c3.6-4.7,7.8-8.9,12.5-12.5
		C231.3,92.9,237.3,90.7,243.5,89.5z"/>
</g>
<g>
	<path class="st1" d="M193.5,205.5c37.3-0.2,74.7,0,112,0.5c31.2,5.5,50.3,23.7,57.5,54.5c0.7,25,0.7,50,0,75
		c-6.8,16.1-18.9,23.1-36.5,21c0.2,21,0,42-0.5,63c-0.6,1.8-1.8,3.1-3.5,4c-44.7,1.2-89.3,1.3-134,0.5c-2.1-0.9-3.6-2.4-4.5-4.5
		c-0.3-6.7-0.7-13.3-1-20c-13.7,7.4-26.6,6.1-38.5-4c-3.9-4.4-6.7-9.4-8.5-15c-1-41.4-0.6-82.7,1-124
		C145.7,228,164.5,211,193.5,205.5z M199.5,219.5c24.3,0,48.7,0,73,0c-5,24.2-9.3,48.6-13,73c-7-0.2-14,0-21,0.5
		c-13.4,3.1-21.9,11.2-25.5,24.5c-2.1,18.3,5.4,30.8,22.5,37.5c13.3,1.1,26.6,1.6,40,1.5c11.9,0,23.7-0.3,35.5-1
		c0.5,18,0.7,36,0.5,54c-37.7,0-75.3,0-113,0c0.5-46.1,0-92.1-1.5-138c-5.1-4.2-9.4-3.5-13,2c-0.3,35-0.7,70-1,105
		c-5.9,10.7-14.4,13.5-25.5,8.5c-2.5-2.2-4.7-4.7-6.5-7.5c-1.1-19.4-1.6-38.9-1.5-58.5c0.2-18.5,0.3-37,0.5-55.5
		C155.9,238.6,172.4,223.3,199.5,219.5z M297.5,219.5c4.7,0.7,9.4,1.7,14,3c1,39.7,1.3,79.3,1,119c-16,0-32,0-48,0
		c8.2-40.2,15.8-80.6,23-121C291,220.8,294.4,220.5,297.5,219.5z M326.5,229.5c12.8,8.6,20.3,20.6,22.5,36c0.7,21.7,0.7,43.3,0,65
		c-1,4.3-3.5,7.5-7.5,9.5c-4.9,1.2-9.9,1.7-15,1.5C326.5,304.2,326.5,266.8,326.5,229.5z M255.5,307.5c-1.9,11.3-3.6,22.6-5,34
		c-9.5,1.6-16.7-1.7-21.5-10c-3.5-10.9,0-18.7,10.5-23.5C244.8,307.5,250.2,307.3,255.5,307.5z"/>
</g>
</svg>
