<?xml version="1.0" encoding="UTF-8"?>
<!DOCTYPE svg PUBLIC "-//W3C//DTD SVG 1.1//EN" "http://www.w3.org/Graphics/SVG/1.1/DTD/svg11.dtd">
<svg xmlns="http://www.w3.org/2000/svg" version="1.1" width="500px" height="500px" style="shape-rendering:geometricPrecision; text-rendering:geometricPrecision; image-rendering:optimizeQuality; fill-rule:evenodd; clip-rule:evenodd" xmlns:xlink="http://www.w3.org/1999/xlink">
<g><path style="opacity:0.923" fill="#fe6c00" d="M 261.5,76.5 C 279.945,74.1389 293.445,81.1389 302,97.5C 304.251,104.122 305.418,110.789 305.5,117.5C 312.335,116.47 319.002,117.303 325.5,120C 346.044,132.549 366.044,145.882 385.5,160C 395.168,169.164 401.335,180.331 404,193.5C 404.667,268.5 404.667,343.5 404,418.5C 402.833,419.667 401.667,420.833 400.5,422C 323.167,422.667 245.833,422.667 168.5,422C 166.951,420.786 165.785,419.286 165,417.5C 164.667,389.833 164.333,362.167 164,334.5C 156.836,339.416 149.503,344.083 142,348.5C 141.98,372.254 141.314,395.921 140,419.5C 139.167,420.333 138.333,421.167 137.5,422C 124.5,422.667 111.5,422.667 98.5,422C 97.3333,420.833 96.1667,419.667 95,418.5C 94.3333,358.167 94.3333,297.833 95,237.5C 97.8977,227.936 103.731,220.77 112.5,216C 101.175,209.307 95.8414,199.307 96.5,186C 96.3114,169.522 103.978,158.522 119.5,153C 139.218,149.44 152.718,156.94 160,175.5C 162.226,183.56 161.726,191.393 158.5,199C 173.279,194.628 187.946,189.628 202.5,184C 205.817,183.502 209.15,183.335 212.5,183.5C 213.779,179.698 216.112,176.531 219.5,174C 234.012,163.577 248.345,152.91 262.5,142C 238.587,130.926 232.087,113.426 243,89.5C 247.99,83.2747 254.157,78.9414 261.5,76.5 Z M 266.5,90.5 C 280.092,91.0915 288.092,98.0915 290.5,111.5C 287.582,126.13 278.916,131.297 264.5,127C 251.309,118.665 248.976,107.998 257.5,95C 260.324,92.9212 263.324,91.4212 266.5,90.5 Z M 304.5,131.5 C 311.676,130.794 318.343,132.294 324.5,136C 336.833,144.333 349.167,152.667 361.5,161C 351.167,169.333 340.833,177.667 330.5,186C 322.014,182.074 314.014,177.074 306.5,171C 304.361,169.596 302.028,168.763 299.5,168.5C 277.911,176.309 256.578,184.809 235.5,194C 230.885,196.647 227.219,195.814 224.5,191.5C 225.592,188.906 227.259,186.739 229.5,185C 251.167,168.667 272.833,152.333 294.5,136C 297.893,134.38 301.226,132.88 304.5,131.5 Z M 123.5,166.5 C 140.576,166.08 148.076,174.413 146,191.5C 141.753,204.04 133.253,208.206 120.5,204C 116.183,201.685 113.35,198.185 112,193.5C 108.612,181.106 112.445,172.106 123.5,166.5 Z M 373.5,169.5 C 381.97,176.092 387.136,184.758 389,195.5C 389.5,221.165 389.667,246.831 389.5,272.5C 385.5,272.5 381.5,272.5 377.5,272.5C 377.667,254.164 377.5,235.83 377,217.5C 374.427,213.287 370.927,212.12 366.5,214C 364.513,215.319 363.346,217.152 363,219.5C 362.175,237.074 362.342,254.574 363.5,272C 358.845,272.499 354.179,272.666 349.5,272.5C 349.667,253.83 349.5,235.164 349,216.5C 348.081,208.997 345.247,202.331 340.5,196.5C 351.754,187.72 362.754,178.72 373.5,169.5 Z M 298.5,183.5 C 307.285,189.112 315.952,194.945 324.5,201C 329.308,204.789 332.475,209.622 334,215.5C 334.5,234.497 334.667,253.497 334.5,272.5C 328.268,271.939 322.268,272.772 316.5,275C 295.167,291.667 273.833,308.333 252.5,325C 239.207,330.598 225.874,336.098 212.5,341.5C 211.667,327.512 211.167,313.512 211,299.5C 204.942,280.787 192.108,272.62 172.5,275C 169.068,276.071 165.735,277.071 162.5,278C 163.833,271.333 163.833,264.667 162.5,258C 181.833,244.667 201.167,231.333 220.5,218C 222.741,216.261 224.408,214.094 225.5,211.5C 229.5,210.667 233.5,209.833 237.5,209C 257.923,200.448 278.256,191.948 298.5,183.5 Z M 207.5,197.5 C 213.354,199.765 214.021,203.265 209.5,208C 188.756,221.421 168.59,235.588 149,250.5C 148.667,263.167 148.333,275.833 148,288.5C 142.841,292.414 137.507,296.08 132,299.5C 124.667,298.167 117.333,298.167 110,299.5C 109.5,299 109,298.5 108.5,298C 109.327,278.573 109.827,259.073 110,239.5C 113.065,232.773 118.231,228.606 125.5,227C 153.111,217.632 180.444,207.799 207.5,197.5 Z M 323.5,287.5 C 345.836,287.333 368.169,287.5 390.5,288C 389.167,327.667 389.167,367.333 390.5,407C 320.167,407.5 249.834,407.667 179.5,407.5C 179.178,394.92 179.511,382.42 180.5,370C 206.947,359.61 233.28,348.943 259.5,338C 281.02,321.303 302.353,304.47 323.5,287.5 Z M 176.5,288.5 C 185.657,288.322 192.157,292.322 196,300.5C 196.175,316.074 196.675,331.574 197.5,347C 191.71,349.646 185.876,352.146 180,354.5C 179.667,342.833 179.333,331.167 179,319.5C 177.734,316.365 175.401,314.698 172,314.5C 169.008,315.245 166.174,316.412 163.5,318C 153.5,324 143.5,330 133.5,336C 130.131,338.365 127.964,341.532 127,345.5C 126.5,366.164 126.333,386.831 126.5,407.5C 120.491,407.666 114.491,407.499 108.5,407C 108.688,375.991 108.688,344.991 108.5,314C 118.5,313.667 128.5,313.333 138.5,313C 150.824,304.151 163.491,295.985 176.5,288.5 Z"/></g>
</svg>
