<?xml version="1.0" encoding="utf-8"?>
<!-- Generator: Adobe Illustrator 27.4.0, SVG Export Plug-In . SVG Version: 6.00 Build 0)  -->
<svg version="1.1" id="Layer_1" xmlns="http://www.w3.org/2000/svg" xmlns:xlink="http://www.w3.org/1999/xlink" x="0px" y="0px"
	 width="500px" height="500px" viewBox="0 0 500 500" style="enable-background:new 0 0 500 500;" xml:space="preserve">
<style type="text/css">
	.st0{opacity:0.915;fill-rule:evenodd;clip-rule:evenodd;fill:#F96D00;enable-background:new    ;}
	.st1{opacity:0.779;fill-rule:evenodd;clip-rule:evenodd;fill:#F96D00;enable-background:new    ;}
	.st2{opacity:0.781;fill-rule:evenodd;clip-rule:evenodd;fill:#F96D00;enable-background:new    ;}
	.st3{opacity:0.783;fill-rule:evenodd;clip-rule:evenodd;fill:#F96D00;enable-background:new    ;}
	.st4{opacity:0.799;fill-rule:evenodd;clip-rule:evenodd;fill:#F96D00;enable-background:new    ;}
	.st5{opacity:0.919;fill-rule:evenodd;clip-rule:evenodd;fill:#F96D00;enable-background:new    ;}
	.st6{opacity:0.944;fill-rule:evenodd;clip-rule:evenodd;fill:#F96D00;enable-background:new    ;}
	.st7{opacity:0.856;fill-rule:evenodd;clip-rule:evenodd;fill:#F96D00;enable-background:new    ;}
	.st8{opacity:0.853;fill-rule:evenodd;clip-rule:evenodd;fill:#F96D00;enable-background:new    ;}
</style>
<g>
	<path class="st0" d="M234.5,95.5c24.7-0.2,49.3,0,74,0.5c8.3,4.3,11.9,11.2,11,20.5c8.3-0.2,16.7,0,25,0.5
		c5.6,1.9,9.1,5.7,10.5,11.5c0.9,11.1,0.6,22.1-1,33c-2,4-5.2,6.5-9.5,7.5c-11.7,0.3-23.3,0.7-35,1c-6,4.7-12,9.3-18,14
		c-3.3,2.1-6.5,1.9-9.5-0.5c-0.5-4.7-0.7-9.3-0.5-14c-15,1-22-6-21-21c-8.7,0.2-17.3,0-26-0.5c-5.2-2.2-8.7-6.1-10.5-11.5
		c-0.7-9.7-0.7-19.3,0-29C226.4,102.4,229.9,98.4,234.5,95.5z M237.5,107.5c22.7-0.2,45.3,0,68,0.5c0.5,0.5,1,1,1.5,1.5
		c0.8,8.7,0.7,17.4-0.5,26c-1,0.5-2,1-3,1.5c-21.3,0.7-42.7,0.7-64,0c-1-0.5-2-1-3-1.5c-1.2-8.6-1.3-17.3-0.5-26
		C236.7,109,237.2,108.3,237.5,107.5z M319.5,127.5c7-0.2,14,0,21,0.5c1.5,0.8,2.7,2,3.5,3.5c0.7,7.7,0.7,15.3,0,23
		c-0.5,1.8-1.7,3-3.5,3.5c-11.7,0.3-23.3,0.7-35,1c-4.3,3.1-8.5,6.2-12.5,9.5c-0.1-3.4-0.9-6.6-2.5-9.5c-5.8-0.1-11.4-0.8-17-2
		c-1.7-2.6-2.3-5.4-2-8.5c12.3,0.2,24.7,0,37-0.5C316.7,143.7,320.4,136.9,319.5,127.5z"/>
</g>
<g>
	<path class="st1" d="M247.5,116.5c6.3-0.8,9.2,1.8,8.5,8c-3.7,4-7.3,4-11,0C244,121.2,244.9,118.6,247.5,116.5z"/>
</g>
<g>
	<path class="st2" d="M268.5,116.5c6.3-0.8,9.2,1.8,8.5,8c-3.7,4-7.3,4-11,0C265,121.2,265.9,118.6,268.5,116.5z"/>
</g>
<g>
	<path class="st3" d="M289.5,116.5c6.3-0.8,9.2,1.8,8.5,8c-3.7,4-7.3,4-11,0C286,121.2,286.9,118.6,289.5,116.5z"/>
</g>
<g>
	<path class="st4" d="M326.5,137.5c5.5-0.6,8.4,1.7,8.5,7c-2.8,4.5-6.5,5.2-11,2C323.1,142.9,323.9,139.9,326.5,137.5z"/>
</g>
<g>
	<path class="st5" d="M212.5,194.5c8.8-0.1,17.1,1.7,25,5.5c47,0.3,94,0.7,141,1c4.3,1.8,8.3,4.1,12,7c2.6,4.3,4.8,8.8,6.5,13.5
		c0.5,48.7,0.7,97.3,0.5,146c4-0.2,8,0,12,0.5c0.9,0.4,1.8,0.9,2.5,1.5c0.7,7.7,0.7,15.3,0,23c-2.9,5.2-7.1,9.1-12.5,11.5
		c-99.3,0.7-198.7,0.7-298,0c-12.8-7-17.3-17.9-13.5-32.5c0.4-0.9,0.9-1.8,1.5-2.5c4.5-1.4,9.2-1.9,14-1.5c-0.2-48.7,0-97.3,0.5-146
		c1.5-6.9,5-12.4,10.5-16.5c2.4-1.9,5.1-3.2,8-4c24.3-0.3,48.7-0.7,73-1C201,197.4,206.7,195.5,212.5,194.5z M209.5,206.5
		c27.6-0.2,40.8,13.5,39.5,41c-2.2,9.2-5.5,17.8-10,26c-14.6,19.5-29.6,19.8-45,1c-9.6-14.4-12.6-30.1-9-47
		C190.1,216.9,198.3,209.9,209.5,206.5z M128.5,211.5c17.7-0.2,35.3,0,53,0.5c-2.5,2.6-4.5,5.6-6,9c-13.7,0.3-27.3,0.7-41,1
		c-4.9,1.9-8.1,5.4-9.5,10.5c-0.7,38-0.7,76,0,114c1.5,6.2,5.4,10,11.5,11.5c53.3,0.7,106.7,0.7,160,0c5.8-1.8,9.7-5.7,11.5-11.5
		c1-39.1,0.6-78.1-1-117c-1.9-3.5-4.7-6-8.5-7.5c-14-0.2-28-0.7-42-1.5c-1.6-3.1-3.6-5.9-6-8.5c40.7-0.7,81.3-0.7,122,0
		c7.5,1.4,12,5.9,13.5,13.5c0.5,47.3,0.7,94.7,0.5,142c-90.7,0-181.3,0-272,0c-0.2-47.3,0-94.7,0.5-142
		C116.6,217.9,121.1,213.2,128.5,211.5z M138.5,232.5c11,0,22,0,33,0c-0.8,22.7,6.5,42.4,22,59c-11.3,4.7-22.6,9.5-34,14.5
		c-14.4,9.5-21.2,23-20.5,40.5c-1-1-2-2-3-3c-0.7-36-0.7-72,0-108C137,234.6,137.9,233.6,138.5,232.5z M260.5,232.5
		c11-0.2,22,0,33,0.5c1.4,0.5,2.6,1.3,3.5,2.5c0.7,36,0.7,72,0,108c-1,1.2-2.2,2.2-3.5,3c1.3-19.1-6.4-33.3-23-42.5
		c-9.7-4.6-19.7-8.2-30-11c-0.7-0.7-1.3-1.3-2-2C254.9,275.1,262.2,255.6,260.5,232.5z M331.5,232.5c10-0.2,20,0,30,0.5
		c1.4,0.5,2.6,1.3,3.5,2.5c0.7,16.7,0.7,33.3,0,50c-0.4,0.9-0.9,1.8-1.5,2.5c-5.2,1.1-10.6,1.6-16,1.5c-4.7-0.2-9.3-0.3-14-0.5
		c-0.9-0.4-1.8-0.9-2.5-1.5c-1.1-8.9-1.6-17.9-1.5-27c0.2-8.3,0.3-16.7,0.5-25C330.5,234.5,331,233.5,331.5,232.5z M227.5,297.5
		c2.6,3.3,5.9,5.6,10,7c-4.9,7.7-12.1,11.4-21.5,11c-9,0.1-15.8-3.6-20.5-11c3.4-2,6.7-4,10-6C213.1,301.5,220.5,301.1,227.5,297.5z
		 M181.5,308.5c1.1-0.1,2.1,0,3,0.5c7,12.3,17.6,18.2,32,17.5c14.3,0.7,25-5.1,32-17.5c11.8,2,21.6,7.5,29.5,16.5
		c2.4,6.8,3.6,13.8,3.5,21c-43.3,0-86.7,0-130,0c-0.2-4.7,0-9.3,0.5-14c1.9-4.2,4.2-8.2,7-12C166.1,315.6,173.6,311.6,181.5,308.5z
		 M98.5,379.5c101,0,202,0,303,0c1.4,6.1-0.6,10.6-6,13.5c-96.7,0.7-193.3,0.7-290,0C100.4,390,98.1,385.5,98.5,379.5z"/>
</g>
<g>
	<path class="st6" d="M328.5,221.5c12.7-0.2,25.3,0,38,0.5c4.6,2.1,7.8,5.6,9.5,10.5c0.7,18.7,0.7,37.3,0,56
		c-1.3,5.9-4.8,9.7-10.5,11.5c-12.3,0.7-24.7,0.7-37,0c-4.9-1.9-8.1-5.4-9.5-10.5c-0.7-19-0.7-38,0-57
		C320.3,227.1,323.4,223.4,328.5,221.5z M331.5,232.5c-0.5,1-1,2-1.5,3c-0.2,8.3-0.3,16.7-0.5,25c-0.1,9.1,0.4,18.1,1.5,27
		c0.8,0.6,1.6,1.1,2.5,1.5c4.7,0.2,9.3,0.3,14,0.5c5.4,0.1,10.8-0.4,16-1.5c0.6-0.8,1.1-1.6,1.5-2.5c0.7-16.7,0.7-33.3,0-50
		c-0.9-1.2-2.1-2-3.5-2.5C351.5,232.5,341.5,232.3,331.5,232.5z"/>
</g>
<g>
	<path class="st7" d="M323.5,309.5c6.4-0.4,12.8,0.1,19,1.5c2.7,3.3,2.7,6.7,0,10c-7.3,0.7-14.7,0.7-22,0
		C317.3,315.9,318.3,312,323.5,309.5z"/>
</g>
<g>
	<path class="st8" d="M321.5,330.5c11.7-0.2,23.3,0,35,0.5c6.1,3.3,6.5,7,1,11c-12,0.7-24,0.7-36,0
		C317.7,338.3,317.7,334.5,321.5,330.5z"/>
</g>
</svg>
