<?xml version="1.0" encoding="utf-8"?>
<!-- Generator: Adobe Illustrator 27.4.0, SVG Export Plug-In . SVG Version: 6.00 Build 0)  -->
<svg version="1.1" id="Layer_1" xmlns="http://www.w3.org/2000/svg" xmlns:xlink="http://www.w3.org/1999/xlink" x="0px" y="0px"
	 width="500px" height="500px" viewBox="0 0 500 500" style="enable-background:new 0 0 500 500;" xml:space="preserve">
<style type="text/css">
	.st0{opacity:0.925;fill-rule:evenodd;clip-rule:evenodd;fill:#F96D00;enable-background:new    ;}
	.st1{opacity:0.824;fill-rule:evenodd;clip-rule:evenodd;fill:#F96D00;enable-background:new    ;}
	.st2{opacity:0.793;fill-rule:evenodd;clip-rule:evenodd;fill:#F96D00;enable-background:new    ;}
	.st3{opacity:0.787;fill-rule:evenodd;clip-rule:evenodd;fill:#F96D00;enable-background:new    ;}
	.st4{opacity:0.81;fill-rule:evenodd;clip-rule:evenodd;fill:#F96D00;enable-background:new    ;}
	.st5{opacity:0.936;fill-rule:evenodd;clip-rule:evenodd;fill:#F96D00;enable-background:new    ;}
	.st6{opacity:0.901;fill-rule:evenodd;clip-rule:evenodd;fill:#F96D00;enable-background:new    ;}
	.st7{opacity:0.861;fill-rule:evenodd;clip-rule:evenodd;fill:#F96D00;enable-background:new    ;}
	.st8{opacity:0.885;fill-rule:evenodd;clip-rule:evenodd;fill:#F96D00;enable-background:new    ;}
</style>
<g>
	<path class="st0" d="M230.5,76.5c28.3-0.2,56.7,0,85,0.5c9.2,4.6,12.9,12.1,11,22.5c9.7-0.2,19.3,0,29,0.5
		c5.1,2.1,8.9,5.6,11.5,10.5c0.7,12.3,0.7,24.7,0,37c-2.7,6-7.2,9.8-13.5,11.5c-12.7,0.3-25.3,0.7-38,1c-4.8,4.2-9.8,8.2-15,12
		c-3.1,2-6.3,3.8-9.5,5.5c-2.5-0.6-4.5-1.9-6-4c-0.5-4.7-0.7-9.3-0.5-14c-16.7,0.6-24.3-7.4-23-24c-9.7,0.2-19.3,0-29-0.5
		c-6.1-2.1-10.3-6.3-12.5-12.5c-0.7-11-0.7-22,0-33C222.1,83.9,225.6,79.5,230.5,76.5z M236.5,88.5c24.3-0.2,48.7,0,73,0.5
		c2.2,0.8,3.7,2.3,4.5,4.5c0.7,8.3,0.7,16.7,0,25c-0.5,1.4-1.3,2.6-2.5,3.5c-25.3,0.7-50.7,0.7-76,0c-1.3-0.8-2.2-1.9-2.5-3.5
		c-0.7-8.3-0.7-16.7,0-25C233.3,91.1,234.4,89.4,236.5,88.5z M326.5,112.5c8.7-0.2,17.3,0,26,0.5c0.5,0.5,1,1,1.5,1.5
		c1.6,9.2,1.9,18.6,1,28c-0.8,1.2-1.8,2.2-3,3c-13.5,0.8-27,1.3-40.5,1.5c-4.5,3-8.8,6.1-13,9.5c-0.6-3-1.6-5.8-3-8.5
		c-6.3-1.1-12.6-2-19-2.5c-2.6-2.8-3.6-6.1-3-10c13.7,0.2,27.3,0,41-0.5C324.1,130.6,328.1,123.1,326.5,112.5z"/>
</g>
<g>
	<path class="st1" d="M246.5,99.5c9.1-0.4,11.4,3.5,7,11.5c-5.8,2.6-9.1,0.8-10-5.5C243.5,102.9,244.5,100.9,246.5,99.5z"/>
</g>
<g>
	<path class="st2" d="M269.5,99.5c5.9-1.5,9.2,0.6,10,6.5c-2.8,7.5-6.9,8.3-12.5,2.5C265.9,104.9,266.8,101.9,269.5,99.5z"/>
</g>
<g>
	<path class="st3" d="M293.5,99.5c7.3-1.2,10.4,1.8,9.5,9c-4.1,5.3-8.1,5.3-12,0C290.1,105,291,102,293.5,99.5z"/>
</g>
<g>
	<path class="st4" d="M336.5,122.5c6.6,0.2,9.1,3.5,7.5,10c-4.4,4.2-8.4,3.8-12-1C331.4,127.4,332.9,124.4,336.5,122.5z"/>
</g>
<g>
	<path class="st5" d="M204.5,187.5c10.2-0.7,19.8,1.2,29,5.5c52.7,0.3,105.3,0.7,158,1c11,3.1,18.5,9.9,22.5,20.5
		c0.5,56,0.7,112,0.5,168c5-0.2,10,0,15,0.5c1.2,0.5,2,1.3,2.5,2.5c0.8,8.4,0.5,16.7-1,25c-3.2,5.6-7.7,9.7-13.5,12.5
		c-111.7,0.7-223.3,0.7-335,0c-11.8-5.3-17.1-14.5-16-27.5c0.2-3.3,0.3-6.7,0.5-10c0.7-0.5,1.2-1.2,1.5-2c5.3-1,10.6-1.3,16-1
		c-0.2-55,0-110,0.5-165c3-12.5,10.9-20.4,23.5-23.5c26.7-0.3,53.3-0.7,80-1C193.7,190.5,199.1,188.7,204.5,187.5z M205.5,200.5
		c24.9-0.4,39.2,11.6,43,36c-0.7,19.8-8,36.6-22,50.5c-14.4,9-26.9,6.9-37.5-6.5c-12.3-15.9-17-33.9-14-54
		C180.5,212.3,190.7,203.7,205.5,200.5z M110.5,206.5c20.3-0.2,40.7,0,61,0.5c-2.3,3.2-4.3,6.5-6,10c-15.7,0.3-31.3,0.7-47,1
		c-4.9,2.9-8.4,7.1-10.5,12.5c-0.7,42.7-0.7,85.3,0,128c2.3,6.6,6.8,10.8,13.5,12.5c60,0.7,120,0.7,180,0c5.7-1.7,9.9-5.2,12.5-10.5
		c0.7-44.3,0.7-88.7,0-133c-2.6-4.2-6.1-7.4-10.5-9.5c-15.7-0.3-31.3-0.7-47-1c-1.7-3.5-3.7-6.8-6-10c47.4-1,94.7-0.6,142,1
		c5.5,2.9,8.7,7.4,9.5,13.5c0.5,53.7,0.7,107.3,0.5,161c-102,0-204,0-306,0c-0.2-53.7,0-107.3,0.5-161
		C98.6,213.8,103.1,208.8,110.5,206.5z M122.5,230.5c12.7,0,25.3,0,38,0c-0.8,25.5,7.5,47.4,25,65.5c-0.3,1.7-1.3,2.7-3,3
		c-10.2,3.1-20.2,6.7-30,11c-14.5,6.8-23.3,17.9-26.5,33.5c-0.3,5-0.7,10-1,15c-1-0.8-2.2-1.2-3.5-1c-1.2-41.3-1.3-82.6-0.5-124
		C121.5,232.5,122,231.5,122.5,230.5z M261.5,230.5c13-0.3,26,0,39,1c0.3,0.8,0.8,1.5,1.5,2c0.7,40.3,0.7,80.7,0,121
		c-0.7,2-2,3.3-4,4c1.2-22.8-8.3-39.3-28.5-49.5c-10.2-4.1-20.5-7.7-31-11c-0.9-0.4-1.6-1.1-2-2C254,277.7,262.3,255.9,261.5,230.5z
		 M197.5,303.5c8.7,3.9,17.4,3.9,26,0c3.5,3.3,7.5,5.8,12,7.5c-6,8.2-14.1,12.4-24.5,12.5c-10.2,0-18-4.2-23.5-12.5
		C191.4,309.2,194.8,306.7,197.5,303.5z M247.5,314.5c12.6,3.4,23.4,9.7,32.5,19c3.4,7.9,4.9,16.2,4.5,25c-48.7,0-97.3,0-146,0
		c-2.5-18.9,5.2-31.7,23-38.5c4.1-1.7,8.3-3.2,12.5-4.5c11.5,17.4,27.7,23.9,48.5,19.5C234.4,332.3,242.7,325.4,247.5,314.5z
		 M79.5,394.5c113.7,0,227.3,0,341,0c1,7.8-2,13.3-9,16.5c-108,0.7-216,0.7-324,0C80.2,407.9,77.5,402.4,79.5,394.5z"/>
</g>
<g>
	<path class="st6" d="M336.5,217.5c14.7-0.2,29.3,0,44,0.5c5,2.8,8.5,7,10.5,12.5c0.7,21,0.7,42,0,63c-2.2,6.2-6.3,10.3-12.5,12.5
		c-13.3,0.7-26.7,0.7-40,0c-6.1-2.1-10.3-6.3-12.5-12.5c-0.7-21-0.7-42,0-63C328.3,225.1,331.8,220.7,336.5,217.5z M340.5,230.5
		c-0.5,1-1,2-1.5,3c-0.8,19.2-0.6,38.4,0.5,57.5c0.4,0.9,1.1,1.6,2,2c5.7,0.2,11.3,0.3,17,0.5c6.4,0.1,12.8-0.4,19-1.5
		c1.2-19.8,1.3-39.6,0.5-59.5c-0.5-0.5-1-1-1.5-1.5C364.5,230.5,352.5,230.3,340.5,230.5z"/>
</g>
<g>
	<path class="st7" d="M328.5,317.5c8.3-0.2,16.7,0,25,0.5c4.4,4.8,3.8,8.8-2,12c-7,0.7-14,0.7-21,0
		C324.6,326.7,323.9,322.6,328.5,317.5z"/>
</g>
<g>
	<path class="st8" d="M329.5,340.5c13.3-0.2,26.7,0,40,0.5c3.6,2.2,4.8,5.3,3.5,9.5c-0.5,1.2-1.3,2-2.5,2.5c-14,0.7-28,0.7-42,0
		C324.3,348.5,324.6,344.3,329.5,340.5z"/>
</g>
</svg>
