<?xml version="1.0" encoding="utf-8"?>
<!-- Generator: Adobe Illustrator 27.4.0, SVG Export Plug-In . SVG Version: 6.00 Build 0)  -->
<svg version="1.1" id="Layer_1" xmlns="http://www.w3.org/2000/svg" xmlns:xlink="http://www.w3.org/1999/xlink" x="0px" y="0px"
	 width="500px" height="500px" viewBox="0 0 500 500" style="enable-background:new 0 0 500 500;" xml:space="preserve">
<style type="text/css">
	.st0{opacity:0.908;fill-rule:evenodd;clip-rule:evenodd;fill:#86B13E;enable-background:new    ;}
	.st1{opacity:0.904;fill-rule:evenodd;clip-rule:evenodd;fill:#86B13E;enable-background:new    ;}
	.st2{opacity:0.864;fill-rule:evenodd;clip-rule:evenodd;fill:#86B13E;enable-background:new    ;}
	.st3{opacity:0.921;fill-rule:evenodd;clip-rule:evenodd;fill:#86B13E;enable-background:new    ;}
	.st4{opacity:0.926;fill-rule:evenodd;clip-rule:evenodd;fill:#86B13E;enable-background:new    ;}
	.st5{opacity:0.866;fill-rule:evenodd;clip-rule:evenodd;fill:#86B13E;enable-background:new    ;}
</style>
<g>
	<path class="st0" d="M237,80.7c52.3-3.6,92.2,16.7,119.5,61c9.2,17.2,14.2,35.5,15,55c0.3,59.3,0.7,118.7,1,178
		c7.7,3.1,15.4,6.5,23,10c-1.4-14.5-7.4-26.9-18-37c-2.2-8.5,1-11.7,9.5-9.5c3.9,4.2,7.4,8.7,10.5,13.5c3.8-14.5,11-27,21.5-37.5
		c7.1-2.6,10.6-0.1,10.5,7.5c-11.5,12-17.9,26.4-19,43c7.2-8.7,16.4-13.2,27.5-13.5c2.8,2.6,3.7,5.7,2.5,9.5
		c-4.7,2.6-9.6,5.1-14.5,7.5c-7.5,6-12.5,13.7-15,23c10.1,5.8,19.9,11.9,29.5,18.5c1.2,3.8,0.3,6.9-2.5,9.5c-124,0.7-248,0.7-372,0
		c-2.2-3.2-2.5-6.7-1-10.5c9.2-6.1,18.5-11.9,28-17.5c-4.1-15.1-13.6-24.9-28.5-29.5c-0.7-3-0.7-6,0-9c1.3-1.5,3-2.1,5-2
		c9.7,1.8,17.7,6.5,24,14c-1.1-16.6-7.5-31-19-43c-0.1-7.6,3.4-10.1,10.5-7.5c10.5,10.5,17.7,23,21.5,37.5
		c3.1-4.8,6.6-9.3,10.5-13.5c8.5-2.2,11.7,1,9.5,9.5c-10.6,10.1-16.6,22.5-18,37c7.6-3.5,15.3-6.9,23-10c0.3-59.3,0.7-118.7,1-178
		c4.2-52.8,30.7-89.3,79.5-109.5C220.3,84.5,228.7,82.4,237,80.7z M243,93.7c54.4-0.7,91.3,24.3,110.5,75c1.8,6.6,3.2,13.2,4,20
		c0.8,60.3,0.7,120.7-0.5,181c-70-22.7-140-22.7-210,0c-1.2-60.3-1.3-120.7-0.5-181c7.8-48.4,35.3-79.3,82.5-92.5
		C233.9,95.7,238.5,94.8,243,93.7z M206,186.2 M230,366.7c63.3-3.1,123,10.1,179,39.5c-104.7,0.7-209.3,0.7-314,0
		C137.5,384,182.5,370.8,230,366.7z"/>
</g>
<g>
	<path class="st1" d="M178.5,172.5c9.7-0.2,19.3,0,29,0.5c17.3,7.2,22.8,19.7,16.5,37.5c-1.6,2.5-3.5,4.8-5.5,7c3.5,3.7,6,8,7.5,13
		c0.7,7.7,0.7,15.3,0,23c-4.4,4.2-8.4,3.8-12-1c-0.3-6-0.7-12-1-18c-2.8-7.9-8.5-11.3-17-10c-2.8,0.2-5.7,0.3-8.5,0.5
		c1.4,9.5,1.3,19-0.5,28.5c-3.3,3.6-7,3.9-11,1c-1.6-25.9-2-51.9-1-78C175.7,174.6,176.9,173.3,178.5,172.5z M187.5,186.5
		c1.3,8.1,1.3,16.2,0,24.5c4.7,0.7,9.3,0.7,14,0c7.2-1.1,11.2-5.2,12-12.5c-0.2-6.7-3.5-10.9-10-12.5
		C198,185.2,192.6,185.3,187.5,186.5z"/>
</g>
<g>
	<path class="st2" d="M249.5,172.5c4.2-0.8,7.4,0.5,9.5,4c0.7,25.3,0.7,50.7,0,76c-2.2,3.6-5.3,4.8-9.5,3.5c-2-1.3-3.2-3.2-3.5-5.5
		c-0.7-23.7-0.7-47.3,0-71C246.1,176.6,247.3,174.3,249.5,172.5z"/>
</g>
<g>
	<path class="st3" d="M283.5,172.5c10.7-0.4,21.4,0.1,32,1.5c15.2,7.6,20,19.4,14.5,35.5c-3.8,7.8-10,12.7-18.5,14.5
		c-6,0.5-12,0.7-18,0.5c0.2,9.7,0,19.3-0.5,29c-4.1,3.9-8.1,3.9-12,0c-0.7-26-0.7-52,0-78C282,174.6,282.9,173.6,283.5,172.5z
		 M293.5,185.5c0,8.7,0,17.3,0,26c4.7,0.2,9.3,0,14-0.5c4.9-0.6,8.4-3.1,10.5-7.5c2-6.9,0.1-12.4-5.5-16.5
		C306.3,185.6,299.9,185.1,293.5,185.5z"/>
</g>
<g>
	<path class="st4" d="M171.5,270.5c52-0.2,104,0,156,0.5c4.1,2.6,5,6.1,2.5,10.5c-0.8,0.6-1.6,1.1-2.5,1.5c-52,0.7-104,0.7-156,0
		C166.2,278.8,166.2,274.7,171.5,270.5z"/>
</g>
<g>
	<path class="st5" d="M189.5,295.5c40-0.2,80,0,120,0.5c6.7,4.3,6.7,8.7,0,13c-40,0.7-80,0.7-120,0
		C182.9,304.5,182.9,300,189.5,295.5z"/>
</g>
</svg>
