<?xml version="1.0" encoding="UTF-8"?>
<!DOCTYPE svg PUBLIC "-//W3C//DTD SVG 1.1//EN" "http://www.w3.org/Graphics/SVG/1.1/DTD/svg11.dtd">
<svg xmlns="http://www.w3.org/2000/svg" version="1.1" width="500px" height="500px" style="shape-rendering:geometricPrecision; text-rendering:geometricPrecision; image-rendering:optimizeQuality; fill-rule:evenodd; clip-rule:evenodd" xmlns:xlink="http://www.w3.org/1999/xlink">
<g><path style="opacity:0.918" fill="#fe6c00" d="M 236.5,74.5 C 283.462,70.707 316.629,90.0403 336,132.5C 338.304,139.684 339.97,147.018 341,154.5C 341.667,184.167 341.667,213.833 341,243.5C 339.311,248.525 336.144,252.359 331.5,255C 322.872,256.045 314.205,256.878 305.5,257.5C 301.995,264.512 297.162,270.512 291,275.5C 290.333,278.5 290.333,281.5 291,284.5C 310.783,290.072 330.616,295.572 350.5,301C 362.249,306.413 370.082,315.246 374,327.5C 374.5,360.165 374.667,392.832 374.5,425.5C 291.5,425.5 208.5,425.5 125.5,425.5C 125.333,393.498 125.5,361.498 126,329.5C 129.851,316.314 138.018,306.814 150.5,301C 170.384,295.572 190.217,290.072 210,284.5C 210.667,281.5 210.667,278.5 210,275.5C 197.58,264.58 190.246,250.913 188,234.5C 181.44,234.006 174.94,233.006 168.5,231.5C 163.756,229.361 160.923,225.694 160,220.5C 159.333,198.5 159.333,176.5 160,154.5C 164.242,123.73 179.742,100.564 206.5,85C 216.048,79.9542 226.048,76.4542 236.5,74.5 Z M 242.5,86.5 C 290.358,86.5397 319.191,109.873 329,156.5C 329.5,163.158 329.666,169.825 329.5,176.5C 323.879,175.646 318.212,175.313 312.5,175.5C 312.5,173.833 312.5,172.167 312.5,170.5C 288.612,174.037 267.946,167.704 250.5,151.5C 239.582,162.791 226.249,168.958 210.5,170C 202.841,170.5 195.174,170.666 187.5,170.5C 187.5,172.167 187.5,173.833 187.5,175.5C 182.12,175.324 176.787,175.658 171.5,176.5C 169.575,143.035 182.241,116.868 209.5,98C 219.901,92.0347 230.901,88.2014 242.5,86.5 Z M 249.5,168.5 C 264.69,179.217 281.69,183.884 300.5,182.5C 300.667,200.836 300.5,219.17 300,237.5C 299.187,239.436 298.687,241.436 298.5,243.5C 291.5,243.5 284.5,243.5 277.5,243.5C 275.713,238.216 272.047,234.716 266.5,233C 255.833,232.333 245.167,232.333 234.5,233C 221.325,239.201 218.325,248.701 225.5,261.5C 228.199,263.848 231.199,265.682 234.5,267C 245.167,267.667 255.833,267.667 266.5,267C 272.047,265.284 275.713,261.784 277.5,256.5C 282.179,256.334 286.845,256.501 291.5,257C 271.38,279.354 248.047,283.354 221.5,269C 210.991,260.837 204.157,250.337 201,237.5C 200.5,219.17 200.333,200.836 200.5,182.5C 215.385,183.776 229.385,180.943 242.5,174C 245.02,172.303 247.353,170.47 249.5,168.5 Z M 174.5,188.5 C 178.833,188.5 183.167,188.5 187.5,188.5C 187.5,199.5 187.5,210.5 187.5,221.5C 183.818,221.665 180.152,221.499 176.5,221C 174.508,220.426 173.008,219.259 172,217.5C 171.333,208.833 171.333,200.167 172,191.5C 173.045,190.627 173.878,189.627 174.5,188.5 Z M 312.5,188.5 C 326.653,184.989 332.32,190.322 329.5,204.5C 332.554,218.78 326.887,224.446 312.5,221.5C 312.5,210.5 312.5,199.5 312.5,188.5 Z M 328.5,232.5 C 331.078,240.77 327.912,244.437 319,243.5C 316.5,243.167 314,242.833 311.5,242.5C 312.407,239.579 312.74,236.579 312.5,233.5C 318.026,233.821 323.36,233.488 328.5,232.5 Z M 236.5,245.5 C 245.839,245.334 255.173,245.5 264.5,246C 267.167,248.667 267.167,251.333 264.5,254C 255.167,254.667 245.833,254.667 236.5,254C 233.899,251.17 233.899,248.337 236.5,245.5 Z M 222.5,283.5 C 241.001,292.8 259.501,292.8 278,283.5C 278.269,286.28 277.102,288.446 274.5,290C 266.645,296.689 258.645,303.189 250.5,309.5C 241.187,302.022 232.02,294.355 223,286.5C 222.517,285.552 222.351,284.552 222.5,283.5 Z M 214.5,296.5 C 222.763,303.315 231.096,310.148 239.5,317C 230.418,322.958 221.251,328.792 212,334.5C 211.5,322.171 211.333,309.838 211.5,297.5C 212.791,297.737 213.791,297.404 214.5,296.5 Z M 285.5,296.5 C 286.708,297.234 288.041,297.567 289.5,297.5C 289.667,309.838 289.5,322.171 289,334.5C 279.749,328.792 270.582,322.958 261.5,317C 269.798,310.376 277.798,303.542 285.5,296.5 Z M 194.5,301.5 C 195.833,301.5 197.167,301.5 198.5,301.5C 198.5,319.833 198.5,338.167 198.5,356.5C 207.589,352.595 216.089,347.595 224,341.5C 227.41,347.392 230.243,353.559 232.5,360C 229.25,377.165 226.083,394.332 223,411.5C 210.081,413.47 196.914,414.137 183.5,413.5C 183.5,390.833 183.5,368.167 183.5,345.5C 179.167,345.5 174.833,345.5 170.5,345.5C 170.5,368.167 170.5,390.833 170.5,413.5C 159.5,413.5 148.5,413.5 137.5,413.5C 137.333,387.498 137.5,361.498 138,335.5C 139.799,323.706 146.299,315.873 157.5,312C 170.085,308.941 182.418,305.441 194.5,301.5 Z M 302.5,301.5 C 318.764,305.066 334.764,309.566 350.5,315C 357.802,319.886 361.968,326.719 363,335.5C 363.5,361.498 363.667,387.498 363.5,413.5C 352.5,413.5 341.5,413.5 330.5,413.5C 330.5,390.833 330.5,368.167 330.5,345.5C 326.167,345.5 321.833,345.5 317.5,345.5C 317.5,368.167 317.5,390.833 317.5,413.5C 304.086,414.137 290.919,413.47 278,411.5C 274.917,394.332 271.75,377.165 268.5,360C 270.916,353.666 273.749,347.5 277,341.5C 284.911,347.595 293.411,352.595 302.5,356.5C 302.5,338.167 302.5,319.833 302.5,301.5 Z M 249.5,325.5 C 255.319,328.244 260.652,331.744 265.5,336C 263.012,341.14 260.678,346.306 258.5,351.5C 253.167,351.5 247.833,351.5 242.5,351.5C 240.322,346.306 237.988,341.14 235.5,336C 240.025,332.245 244.692,328.745 249.5,325.5 Z M 244.5,363.5 C 248.5,363.5 252.5,363.5 256.5,363.5C 259.685,380.124 262.685,396.791 265.5,413.5C 255.5,413.5 245.5,413.5 235.5,413.5C 238.315,396.791 241.315,380.124 244.5,363.5 Z"/></g>
<g><path style="opacity:0.797" fill="#fe6c00" d="M 218.5,198.5 C 225.164,198 228.331,201 228,207.5C 224.288,211.415 220.622,211.415 217,207.5C 216.212,204.228 216.712,201.228 218.5,198.5 Z"/></g>
<g><path style="opacity:0.798" fill="#fe6c00" d="M 276.5,198.5 C 284.508,198.862 286.508,202.529 282.5,209.5C 275.7,211.853 272.533,209.52 273,202.5C 274.376,201.295 275.542,199.962 276.5,198.5 Z"/></g>
</svg>
