<?xml version="1.0" encoding="UTF-8"?>
<!DOCTYPE svg PUBLIC "-//W3C//DTD SVG 1.1//EN" "http://www.w3.org/Graphics/SVG/1.1/DTD/svg11.dtd">
<svg xmlns="http://www.w3.org/2000/svg" version="1.1" width="500px" height="500px" style="shape-rendering:geometricPrecision; text-rendering:geometricPrecision; image-rendering:optimizeQuality; fill-rule:evenodd; clip-rule:evenodd" xmlns:xlink="http://www.w3.org/1999/xlink">
<g><path style="opacity:0.959" fill="#fefffe" d="M 229.5,95.5 C 307.856,90.5652 363.022,123.565 395,194.5C 412.724,247.558 405.724,296.891 374,342.5C 331.058,394.643 276.224,413.476 209.5,399C 154.383,382.216 118.217,346.383 101,291.5C 88.3832,242.437 96.7165,197.437 126,156.5C 152.54,122.647 187.04,102.314 229.5,95.5 Z M 234.5,124.5 C 296.619,121.29 340.786,147.623 367,203.5C 385.694,259.713 373.194,307.547 329.5,347C 295.041,373.191 256.707,380.858 214.5,370C 157.633,349.959 127.633,309.792 124.5,249.5C 127.11,193.426 154.11,154.259 205.5,132C 215.084,128.688 224.751,126.188 234.5,124.5 Z"/></g>
<g><path style="opacity:0.949" fill="#fefffe" d="M 313.5,190.5 C 329.727,190.552 335.227,198.219 330,213.5C 299.194,244.306 268.36,275.14 237.5,306C 230.895,309.634 224.562,309.3 218.5,305C 202.306,288.806 186.14,272.64 170,256.5C 164.954,240.546 170.787,233.046 187.5,234C 189.5,235.333 191.5,236.667 193.5,238C 205.253,249.85 216.919,261.684 228.5,273.5C 254.374,247.793 280.041,221.959 305.5,196C 308.059,193.897 310.726,192.064 313.5,190.5 Z"/></g>
</svg>
