<?xml version="1.0" encoding="utf-8"?>
<!-- Generator: Adobe Illustrator 27.4.0, SVG Export Plug-In . SVG Version: 6.00 Build 0)  -->
<svg version="1.1" id="Layer_1" xmlns="http://www.w3.org/2000/svg" xmlns:xlink="http://www.w3.org/1999/xlink" x="0px" y="0px"
	 width="500px" height="500px" viewBox="0 0 500 500" style="enable-background:new 0 0 500 500;" xml:space="preserve">
<style type="text/css">
	.st0{opacity:0.897;fill-rule:evenodd;clip-rule:evenodd;fill:#F96D00;enable-background:new    ;}
</style>
<g>
	<path class="st0" d="M235.5,72.5c60.6-2.6,110.8,18.7,150.5,64c41.3,54.2,50.3,113.6,27,178C375.6,392,313.8,427.8,227.5,422
		C148.5,407.3,99,361.1,79,283.5c-10.7-64.1,6.8-118.9,52.5-164.5c29.1-25.9,63.1-40.9,102-45C234.4,73.7,235.1,73.2,235.5,72.5z
		 M244.5,87.5c17,0,33.6,2.2,50,6.5c-5.2,6.5-10.3,13-15.5,19.5c-3.2,6.5-5.3,13.3-6.5,20.5c0.1,1.6,0.6,3.1,1.5,4.5
		c10.4,9.1,21.2,17.6,32.5,25.5c8.5,2.6,15.5,0.2,21-7c2.5-1,5-1.8,7.5-2.5c8.8,1.1,17.6,1.3,26.5,0.5c5.8-1.2,11.5-2.5,17-4
		c11.3,15.7,20,32.7,26,51c-10.4-0.4-20.7,0.5-31,2.5c-16.8-3.2-33.5-6.8-50-11c-6.8,0-12.6,2.3-17.5,7
		c-10.2,15.6-18.3,32.3-24.5,50c0.9,3.8,3.2,6.3,7,7.5c6.5,6.4,9.6,14.2,9.5,23.5c2.9,8.4,8.7,12.7,17.5,13c5.6-1,11.3-1.2,17-0.5
		c4.9,2.3,7.4,6.1,7.5,11.5c0.3,13.7,0.7,27.3,1,41c1.3,9.7,3.8,19,7.5,28c-28.5,22.5-61,33.8-97.5,34c-54.4-1.9-98-24.2-131-67
		C90.5,298,83.1,251,98,200.5c12.9-1.3,25.7-2.8,38.5-4.5c4.1,7.1,4.9,14.6,2.5,22.5c-6.3,15.3-14.3,29.6-24,43
		c-3.3,8-5.5,16.4-6.5,25c2.9,15.9,12.2,21.2,28,16c5.7,1.5,10.5,4.5,14.5,9c3.9,8.6,9.4,16.1,16.5,22.5c8,4.6,16.4,8.6,25,12
		c1.5,1.5,2.3,3.3,2.5,5.5c0.8,8.4,1.8,16.7,3,25c4.8,9.3,12.3,12.5,22.5,9.5c12.8-5.1,20-14.6,21.5-28.5c0.9-4,1.5-8,2-12
		c1.5-26.3,2.1-52.7,2-79c-1-9-4-17.4-9-25c-7-8-14.3-15.6-22-23c-3.1-4.2-4.1-8.9-3-14c3.5-7.5,6-15.3,7.5-23.5
		c-2.4-11.3-7.6-21.1-15.5-29.5c-1.8-3.2-3.3-6.6-4.5-10c3.3-7.3,7.2-14.3,11.5-21c3.6-5.3,7.6-10.3,12-15c2.9-5.5,6.1-10.8,9.5-16
		C236.6,88.8,240.6,88.2,244.5,87.5z M209.5,92.5c1.1-0.1,2.1,0,3,0.5c-7.6,10.6-14.7,21.4-21.5,32.5c-3.1,5.1-5.3,10.6-6.5,16.5
		c0.8,3.6,1.9,7.1,3.5,10.5c5.6,8.2,10.9,16.5,16,25c0.7,2.3,0.7,4.7,0,7c-2.6,6.2-5,12.6-7,19c-1.4,9.1,0.9,17.1,7,24
		c6,7,12.4,13.7,19,20c4.3,5.3,7,11.3,8,18c0.1,24-0.2,48-1,72c-0.4,10.5-2.8,20.5-7,30c-3,3.7-6.6,5-11,4c-1.1-8.3-2.1-16.6-3-25
		c-1.8-7.5-6.3-12.7-13.5-15.5c-7-2.4-13.6-5.4-20-9c-4.3-4.1-7.4-9-9.5-14.5c-3.6-4.5-7.5-8.8-11.5-13c-3.4-2.4-7.1-4.2-11-5.5
		c-6.7-0.6-13.4-0.4-20,0.5c-0.2-3,0-6,0.5-9c3.5-11.8,9.2-22.5,17-32c8-12,12.8-25.1,14.5-39.5c-0.2-11.7-4.8-21-14-28
		c-10.8,0.9-21.7,2.1-32.5,3.5c-1.8-0.3-3.7-0.7-5.5-1C125.3,137.3,160.7,107,209.5,92.5z M308.5,98.5c22.3,9.2,42,22.3,59,39.5
		c-5.7,2.2-11.7,3.4-18,3.5c-7-0.9-14-1.1-21-0.5c-3.3,0.2-6.3,1.2-9,3c-2.2,2.4-4.5,4.5-7,6.5c-8.8-6-17.1-12.5-25-19.5
		c3.1-9.7,8.6-17.9,16.5-24.5C305.4,103.7,306.9,101,308.5,98.5z M319.5,208.5c3-0.2,6,0,9,0.5c11.5,3.8,23.1,6.8,35,9
		c10.7,0.8,21.4,0.3,32-1.5c4.4,0.2,8.8,0.9,13,2c7.7,51.6-5.1,97.3-38.5,137c-2.7,3.2-5.9,5.9-9.5,8c-3.3-8-5.2-16.3-5.5-25
		c0.1-10.3,0.1-20.7,0-31c-0.4-12.7-6.3-21.9-17.5-27.5c-8.3-1.3-16.6-1.8-25-1.5c-0.8-12.3-5.4-22.8-14-31.5
		C303.3,232.9,310.3,220,319.5,208.5z"/>
</g>
</svg>
