<?xml version="1.0" encoding="utf-8"?>
<!-- Generator: Adobe Illustrator 27.4.0, SVG Export Plug-In . SVG Version: 6.00 Build 0)  -->
<svg version="1.1" id="Layer_1" xmlns="http://www.w3.org/2000/svg" xmlns:xlink="http://www.w3.org/1999/xlink" x="0px" y="0px"
	 width="500px" height="500px" viewBox="0 0 500 500" style="enable-background:new 0 0 500 500;" xml:space="preserve">
<style type="text/css">
	.st0{opacity:0.896;fill-rule:evenodd;clip-rule:evenodd;fill:#F96D00;enable-background:new    ;}
</style>
<g>
	<path class="st0" d="M236.5,85.5c66.9-2.1,118.4,24.5,154.5,80c24.7,44.5,29.4,91.2,14,140c-24.7,60-69.2,95.9-133.5,107.5
		c-74.3,5.4-130.1-23.7-167.5-87.5c-17.3-36-22-73.7-14-113C105.5,156,140.3,116.8,194.5,95C208.4,90.7,222.4,87.6,236.5,85.5z
		 M244.5,99.5c16-0.2,31.7,2,47,6.5c-5.9,5.9-11.1,12.4-15.5,19.5c-2.8,5.5-4.7,11.3-5.5,17.5c0.8,3.8,2.8,6.8,6,9
		c7.6,5.3,15,11,22,17c8.9,5.6,16.5,4.3,23-4c2.4-1.1,4.9-1.9,7.5-2.5c13.6,2.3,26.7,0.9,39.5-4c5.5,5.6,10,12,13.5,19
		c4.9,9.6,9,19.4,12.5,29.5c-9.9-0.3-19.7,0.5-29.5,2.5c-15.7-3.4-31.4-7-47-11c-8.2,0.6-14.5,4.3-19,11c-6.2,11.1-11.9,22.4-17,34
		c-1.3,3.3-2,6.6-2,10c0.8,3.5,3,5.7,6.5,6.5c1.4,1.9,2.9,3.8,4.5,5.5c1.9,6.6,3.6,13.2,5,20c3.9,5.1,9.1,7.8,15.5,8
		c5.3-1,10.6-1.2,16-0.5c3.8,2.5,6,6,6.5,10.5c-0.1,17.7,0.9,35.4,3,53c1.6,4.1,3.4,8.1,5.5,12c-46.2,33.4-96.2,40.3-150,20.5
		c-59-27.4-89.7-73.7-92-139c0.1-10.6,0.9-21.1,2.5-31.5c1.1-4.4,2.5-8.7,4-13c11.7-1,23.4-2.7,35-5c2.9,3.8,4.4,8.1,4.5,13
		c-0.8,6.5-2.3,12.8-4.5,19c-5.7,9-11.3,18-17,27c-3.3,6.8-5.9,13.8-8,21c-0.8,18,7.7,25,25.5,21c5.5,0.3,10,2.7,13.5,7
		c4.8,8.1,10.3,15.6,16.5,22.5c7.8,4.1,15.8,8,24,11.5c1.6,8.2,2.8,16.6,3.5,25c3.6,11.4,11.1,15.2,22.5,11.5
		c8.5-3.1,14.3-9,17.5-17.5c1.6-6.6,2.9-13.3,4-20c1.5-24.6,2.1-49.3,2-74c-1.2-6.9-3.2-13.6-6-20c-8-9.6-16.3-19-25-28
		c-2.5-8-1.1-15.3,4-22c1.9-6.7,1.9-13.3,0-20c-3.6-5.9-7.6-11.6-12-17c-1.5-3.5-3-7-4.5-10.5c1.6-3.4,3.1-6.9,4.5-10.5
		c8.6-12.8,17.4-25.4,26.5-38C237.3,100.8,241,100.2,244.5,99.5z M214.5,104.5c-6.9,10.7-14.1,21.4-21.5,32c-1.8,4.6-3.3,9.2-4.5,14
		c2.4,10.9,7.6,20.2,15.5,28c2.9,5.5,3.2,11.2,1,17c-7.6,11.9-7.3,23.6,1,35c6.5,7.2,13.1,14.2,20,21c2.8,4.7,4.8,9.7,6,15
		c0,22.3-0.3,44.7-1,67c-0.3,10.2-2.6,19.9-7,29c-2.9,2.9-6.4,4.2-10.5,4c-0.5-8-1.3-16-2.5-24c-1.4-4.9-3.9-9-7.5-12.5
		c-7.8-3.1-15.4-6.4-23-10c-4.4-4.6-7.9-9.7-10.5-15.5c-5.1-7.7-11.9-13.2-20.5-16.5c-6.4-0.5-12.7-0.4-19,0.5
		c-0.1-4.8,0.7-9.5,2.5-14c8-14,16-28,24-42c2.7-9.4,3.3-18.7,2-28c-1.4-7.1-4.9-12.9-10.5-17.5c-10.3,0.9-20.6,2.1-31,3.5
		c-1.7-0.3-3.3-0.7-5-1C133.2,145.2,167.2,116.8,214.5,104.5z M304.5,110.5c21.3,7.6,39.6,19.8,55,36.5c-1.6,0.9-3.3,1.5-5,2
		c-11.3,0.3-22.7,0.7-34,1c-4.7,1.8-8.7,4.7-12,8.5c-8.3-5.6-16.3-11.6-24-18c1.6-4.1,3.5-8.1,5.5-12
		C295.1,122.7,299.9,116.7,304.5,110.5z M315.5,212.5c13.7,3.1,27.3,6.2,41,9.5c9.9,0.7,19.7,0.2,29.5-1.5c4.2,0.3,8.4,0.9,12.5,2
		c6.9,47.2-4.6,89.2-34.5,126c-3.7,3.7-7.3,7.3-11,11c-2.7-8.1-4.4-16.4-5-25c0.1-9.7,0.1-19.3,0-29c-0.8-9.9-5-17.9-12.5-24
		c-2.3-0.9-4.6-1.8-7-2.5c-6.7,0-13.4-0.2-20-0.5c-0.6-11-4.8-20.3-12.5-28c-0.7-1.7-0.7-3.3,0-5c4.3-9.6,9-18.9,14-28
		C311.7,215.6,313.6,213.9,315.5,212.5z"/>
</g>
</svg>
