<?xml version="1.0" encoding="utf-8"?>
<!-- Generator: Adobe Illustrator 27.4.0, SVG Export Plug-In . SVG Version: 6.00 Build 0)  -->
<svg version="1.1" id="Layer_1" xmlns="http://www.w3.org/2000/svg" xmlns:xlink="http://www.w3.org/1999/xlink" x="0px" y="0px"
	 width="500px" height="500px" viewBox="0 0 500 500" style="enable-background:new 0 0 500 500;" xml:space="preserve">
<style type="text/css">
	.st0{opacity:0.894;fill-rule:evenodd;clip-rule:evenodd;fill:#003F61;enable-background:new    ;}
	.st1{opacity:0.881;fill-rule:evenodd;clip-rule:evenodd;fill:#003F61;enable-background:new    ;}
	.st2{opacity:0.92;fill-rule:evenodd;clip-rule:evenodd;fill:#003F61;enable-background:new    ;}
	.st3{opacity:0.896;fill-rule:evenodd;clip-rule:evenodd;fill:#003F61;enable-background:new    ;}
	.st4{opacity:0.824;fill-rule:evenodd;clip-rule:evenodd;fill:#003F61;enable-background:new    ;}
</style>
<g>
	<g>
		<path class="st0" d="M169.7,102.6c2.3-0.2,4.5,0,6.7,0.5c1.2,0.9,2,2,2.4,3.4c0.6,8,0.6,16,0,24c-3.5,4.6-7.3,4.9-11.5,1
			c-0.6-8.6-0.6-17.3,0-25.9C168,104.4,168.8,103.4,169.7,102.6z"/>
	</g>
	<g>
		<path class="st0" d="M323.4,102.6c2.3-0.2,4.5,0,6.7,0.5c1.1,0.5,1.9,1.3,2.4,2.4c0.6,8.6,0.6,17.3,0,25.9c-4.2,4-8.1,3.7-11.5-1
			c-0.6-8-0.6-16,0-24C321.6,105,322.4,103.8,323.4,102.6z"/>
	</g>
	<g>
		<path class="st1" d="M116,112.2c2.4-0.2,4.6,0.3,6.7,1.4c9.1,9.1,18.2,18.2,27.4,27.4c2.7,8.8-0.3,11.8-9.1,9.1
			c-9.1-9.1-18.2-18.2-27.4-27.4C111.3,118.5,112.1,114.9,116,112.2z"/>
	</g>
	<g>
		<path class="st1" d="M379.1,112.2c7.7-0.1,10.1,3.5,7.2,10.6c-9.1,9.1-18.2,18.2-27.4,27.4c-8.8,2.7-11.8-0.3-9.1-9.1
			C359.4,131.2,369.2,121.6,379.1,112.2z"/>
	</g>
	<g>
		<path class="st2" d="M278.2,133.4c14.7-1.6,23.3,4.8,25.9,19.2c11.7,1.7,18.1,8.5,19.2,20.2c11,0.9,17.7,6.9,20.2,17.8
			c5.7,1.5,11,4.9,15.8,10.1c4.6,8.2,4.3,16.2-1,24c-4,3.7-7.7,7.7-11,12c4,8.7,6.1,17.8,6.2,27.4c14.4,14.4,28.8,28.8,43.2,43.2
			c1.9,5.5,0.2,9-5.3,10.6c-1.6-0.8-3.2-1.6-4.8-2.4c-6.3-6.4-12.7-12.7-19.2-18.7c-2.7,3-5.9,5.3-9.6,6.7c-4.9-1.5-6.7-4.7-5.3-9.6
			c1.4-2.7,3.5-4.8,6.2-6.2c-4-4-8-8-12-12c-15.7,15.1-31.3,30.5-46.6,46.1c3.8,4.3,7.8,8.5,12,12.5c2-3.8,5-6.3,9.1-7.7
			c8.7,4.5,8.8,9.7,0.5,15.4c-0.6,0.6-0.6,1.3,0,1.9c14.7,14.7,29.4,29.4,44.2,44.2c2.5,5.3,0.9,8.5-4.8,9.6
			c-2.4,0.1-4.5-0.7-6.2-2.4c-25.1-25.1-50.4-50.4-75.9-75.9c-7.1,0.8-14.1,0.1-21.1-1.9c-8.3-4.1-16.3-8.8-24-13.9
			c-32.1,30.7-63.8,61.9-95.1,93.6c-8.5,1-11.1-2.4-7.7-10.1c21.8-21.8,43.5-43.5,65.3-65.3c-13.1-13.8-26.6-27.2-40.3-40.3
			c-15.2,14.7-30.2,29.6-45.1,44.7c-7,1-9.8-2.1-8.2-9.1c21.4-21.4,42.9-42.9,64.3-64.3c-1.7-3.6-4.2-6.8-7.7-9.6
			c-8.4-13.7-5.7-24.6,8.2-32.6c-4.3-10.9-1.8-19.7,7.7-26.4c3-1.7,6.2-2.5,9.6-2.4c1.1-11.8,7.5-18.4,19.2-19.7
			c3.2-15.3,12.5-21.4,27.8-18.2c1.3,0.6,2.6,1.3,3.8,1.9c4.4,4.7,9,9,13.9,13c7.8-6.8,15.3-14,22.6-21.6
			C274.6,135.8,276.5,134.7,278.2,133.4z M281.1,145.8c8.3-0.3,11.4,3.6,9.1,11.5c-4.8,4.8-9.6,9.6-14.4,14.4
			c-2.4,5.5-0.6,9,5.3,10.6c1.4-0.2,2.7-0.7,3.8-1.4c4.8-4.8,9.6-9.6,14.4-14.4c9.7-2.2,13,1.5,10.1,11c-7,7-14.1,14.1-21.1,21.1
			c-1.6,7,1.2,10,8.2,9.1c7.4-7.7,15.1-15.1,23-22.1c8.5-1.8,11.8,1.6,10.1,10.1c-7,8-14.4,15.7-22.1,23c-0.9,7,2.1,9.7,9.1,8.2
			c7.4-7.7,15.1-15.1,23-22.1c8.7-0.9,11.7,2.8,9.1,11c-18.1,18.1-36.2,36.2-54.3,54.3c-17.6,13.2-37.4,19.6-59.5,19.2
			c-2.7,0.6-5.1,1.7-7.2,3.4c-10.8-11.1-21.8-21.8-33.1-32.2c7.4-4,11.6-10.3,12.5-18.7c11.8-1,18.2-7.4,19.2-19.2
			c11.7-1.1,18.4-7.5,20.2-19.2c15.2-3.4,21.1-12.7,17.8-27.8c-1.2-3-3-5.5-5.3-7.7C266.1,160.2,273.5,152.8,281.1,145.8z
			 M223.5,154.5c2,0.2,3.9,0.7,5.8,1.4c7.5,7.5,15,15,22.6,22.6c2.4,8.8-1,12.5-10.1,11c-7.8-7.8-15.7-15.7-23.5-23.5
			C216.3,160.3,218.1,156.4,223.5,154.5z M202.4,174.6c2.3-0.2,4.5,0,6.7,0.5c7.8,7.8,15.7,15.7,23.5,23.5c1.5,9.1-2.2,12.5-11,10.1
			c-7.5-7.5-15-15-22.6-22.6C196.9,181.3,198.1,177.5,202.4,174.6z M183.2,193.9c3.3-0.4,6.1,0.4,8.6,2.4
			c6.6,6.6,13.1,13.1,19.7,19.7c4.3,6.9,2.6,11.4-5.3,13.4c-2.2-0.1-4.1-0.9-5.8-2.4c-6.9-6.9-13.8-13.8-20.6-20.6
			C177.3,201.1,178.4,196.9,183.2,193.9z M172.6,221.7c2.3,0,4.6,0.5,6.7,1.4c4.6,4.6,9.3,9.3,13.9,13.9c2.4,8.8-1,12.5-10.1,11
			c-5-5-9.9-9.9-14.9-14.9C166.7,228.1,168.1,224.2,172.6,221.7z M336.8,245.7c2.9,5.7,4,11.7,3.4,18.2c-16.3,16.3-32.6,32.6-49,49
			c-4.5-6.6-10.6-8.5-18.2-5.8c-7-0.6-13.6-2.6-19.7-6.2c20.1-2.8,37.7-10.8,52.8-24C316.5,266.6,326.8,256.2,336.8,245.7z
			 M176.5,260.1c13.9,13.4,27.7,27,41.3,40.8c-3.2,3.2-6.4,6.4-9.6,9.6c-1.2,0.9-2.5,1.3-3.8,1c-13.1-13.1-26.2-26.2-39.4-39.4
			C169,268.2,172.8,264.2,176.5,260.1z"/>
	</g>
	<g>
		<path class="st3" d="M105.4,167c8.6-0.2,17.3,0,25.9,0.5c4.2,4.7,3.6,8.5-1.9,11.5c-7.7,0.6-15.4,0.6-23,0c-3.1-1-4.3-3.1-3.8-6.2
			C102.1,170,103.1,168.1,105.4,167z"/>
	</g>
	<g>
		<path class="st3" d="M368.5,167c8.6-0.2,17.3,0,25.9,0.5c0.9,0.4,1.7,0.8,2.4,1.4c0.6,2.6,0.6,5.1,0,7.7c-0.9,1.2-2,2-3.4,2.4
			c-7.7,0.6-15.4,0.6-23,0C364.8,175.8,364.2,171.8,368.5,167z"/>
	</g>
	<g>
		<path class="st4" d="M338.7,308.1c6.6,1,8.6,4.5,6.2,10.6c-3.4,3.7-6.7,3.7-10.1,0C332.9,313.8,334.1,310.3,338.7,308.1z"/>
	</g>
</g>
</svg>
