<?xml version="1.0" encoding="UTF-8"?>
<!DOCTYPE svg PUBLIC "-//W3C//DTD SVG 1.1//EN" "http://www.w3.org/Graphics/SVG/1.1/DTD/svg11.dtd">
<svg xmlns="http://www.w3.org/2000/svg" version="1.1" width="500px" height="500px" style="shape-rendering:geometricPrecision; text-rendering:geometricPrecision; image-rendering:optimizeQuality; fill-rule:evenodd; clip-rule:evenodd" xmlns:xlink="http://www.w3.org/1999/xlink">
<g><path style="opacity:0.89" fill="#003f61" d="M 243.5,100.5 C 249.245,100.211 254.912,100.711 260.5,102C 265.864,104.682 271.198,107.349 276.5,110C 280.019,112.685 280.352,115.685 277.5,119C 274.406,119.652 271.406,119.318 268.5,118C 260.841,111.443 252.174,109.443 242.5,112C 212.968,127.35 183.468,142.85 154,158.5C 147.447,164.962 148.281,170.462 156.5,175C 185.198,190.015 213.865,205.015 242.5,220C 247.5,222 252.5,222 257.5,220C 265.078,215.809 272.744,211.809 280.5,208C 269,195.167 257.5,182.333 246,169.5C 244.027,162.138 246.527,159.638 253.5,162C 264.225,174.634 275.059,187.134 286,199.5C 287.117,201.124 288.617,202.124 290.5,202.5C 309.045,192.584 327.711,182.751 346.5,173C 351.833,168.333 351.833,163.667 346.5,159C 326.96,148.397 307.293,138.064 287.5,128C 283.245,123.592 283.912,120.092 289.5,117.5C 311.515,128.505 333.182,140.005 354.5,152C 359.5,158.217 360.834,165.217 358.5,173C 373.478,170.374 383.978,175.874 390,189.5C 390.5,244.499 390.667,299.499 390.5,354.5C 393.909,354.249 397.242,354.583 400.5,355.5C 401.665,363.145 401.831,370.812 401,378.5C 397.923,387.244 392.09,393.411 383.5,397C 339.045,398.156 294.545,398.656 250,398.5C 205.455,398.656 160.955,398.156 116.5,397C 107.119,392.617 100.952,385.451 98,375.5C 97.3333,369.167 97.3333,362.833 98,356.5C 101.583,354.71 105.416,354.043 109.5,354.5C 109.333,299.499 109.5,244.499 110,189.5C 115.654,175.92 125.821,170.587 140.5,173.5C 140.334,168.489 140.501,163.489 141,158.5C 142.377,156.246 143.877,154.08 145.5,152C 177.765,134.035 210.432,116.868 243.5,100.5 Z M 127.5,183.5 C 135.507,183.334 143.507,183.5 151.5,184C 157.469,186.984 163.469,189.984 169.5,193C 157.833,193.333 146.167,193.667 134.5,194C 133.069,194.465 131.903,195.299 131,196.5C 130.167,244.837 130.333,293.17 131.5,341.5C 136.489,342.781 141.656,343.448 147,343.5C 151.833,343.333 156.667,343.167 161.5,343C 165.457,340.056 165.457,337.056 161.5,334C 154.508,333.5 147.508,333.334 140.5,333.5C 140.333,290.165 140.5,246.832 141,203.5C 153.667,204.833 166.333,204.833 179,203.5C 175.227,223.048 180.394,239.548 194.5,253C 204.662,259.298 215.662,263.632 227.5,266C 246.349,269.374 265.015,268.541 283.5,263.5C 283.657,264.873 283.49,266.207 283,267.5C 279.667,273.5 276.333,279.5 273,285.5C 271.758,299.651 278.258,305.818 292.5,304C 302.141,300.888 305.641,294.388 303,284.5C 300.401,278.911 297.401,273.577 294,268.5C 293.179,265.446 293.345,262.446 294.5,259.5C 307.88,253.622 316.38,243.622 320,229.5C 320.333,220.833 320.667,212.167 321,203.5C 333.667,204.833 346.333,204.833 359,203.5C 359.5,246.832 359.667,290.165 359.5,333.5C 297.137,333.178 234.804,333.511 172.5,334.5C 170.611,337.99 171.278,340.823 174.5,343C 238.5,343.667 302.5,343.667 366.5,343C 367.025,342.308 367.692,341.808 368.5,341.5C 369.667,293.17 369.833,244.837 369,196.5C 368.097,195.299 366.931,194.465 365.5,194C 353.833,193.667 342.167,193.333 330.5,193C 336.147,190.034 341.814,187.034 347.5,184C 355.833,183.333 364.167,183.333 372.5,184C 376.488,185.448 378.988,188.281 380,192.5C 380.5,246.499 380.667,300.499 380.5,354.5C 293.5,354.5 206.5,354.5 119.5,354.5C 119.333,300.499 119.5,246.499 120,192.5C 120.923,188.086 123.423,185.086 127.5,183.5 Z M 189.5,203.5 C 207.036,213.435 225.036,222.602 243.5,231C 247.833,231.667 252.167,231.667 256.5,231C 265.296,227.122 273.963,222.956 282.5,218.5C 283.666,229.819 283.832,241.152 283,252.5C 261.261,258.984 239.427,259.151 217.5,253C 193.315,245.237 183.981,228.737 189.5,203.5 Z M 309.5,203.5 C 310.656,211.323 310.823,219.323 310,227.5C 307.193,236.372 301.86,243.372 294,248.5C 293.333,236.5 293.333,224.5 294,212.5C 299.21,209.394 304.376,206.394 309.5,203.5 Z M 287.5,279.5 C 290.8,282.31 293.133,285.81 294.5,290C 291.872,294.529 288.205,295.529 283.5,293C 282.919,292.107 282.585,291.107 282.5,290C 284.451,286.653 286.118,283.153 287.5,279.5 Z M 107.5,364.5 C 142.502,364.333 177.502,364.5 212.5,365C 214.655,371.826 218.988,376.826 225.5,380C 233.594,381.12 241.76,381.62 250,381.5C 257.167,381.333 264.333,381.167 271.5,381C 279.535,378.299 284.868,372.965 287.5,365C 322.498,364.5 357.498,364.333 392.5,364.5C 393.651,376.385 388.651,384.218 377.5,388C 292.167,388.667 206.833,388.667 121.5,388C 110.627,383.892 105.96,376.059 107.5,364.5 Z M 223.5,365.5 C 240.659,364.503 257.992,364.17 275.5,364.5C 274.662,368.169 272.328,370.335 268.5,371C 256.167,371.667 243.833,371.667 231.5,371C 227.891,370.375 225.224,368.542 223.5,365.5 Z"/></g>
<g><path style="opacity:0.874" fill="#003f61" d="M 154.5,294.5 C 176.503,294.333 198.503,294.5 220.5,295C 223.197,298.271 222.864,301.271 219.5,304C 198.167,304.667 176.833,304.667 155.5,304C 151.846,301.209 151.513,298.043 154.5,294.5 Z"/></g>
<g><path style="opacity:0.881" fill="#003f61" d="M 156.5,312.5 C 187.168,312.333 217.835,312.5 248.5,313C 252.819,315.847 253.152,318.847 249.5,322C 217.833,322.667 186.167,322.667 154.5,322C 151.466,317.974 152.133,314.807 156.5,312.5 Z"/></g>
</svg>
