<?xml version="1.0" encoding="utf-8"?>
<!-- Generator: Adobe Illustrator 27.4.0, SVG Export Plug-In . SVG Version: 6.00 Build 0)  -->
<svg version="1.1" id="Layer_1" xmlns="http://www.w3.org/2000/svg" xmlns:xlink="http://www.w3.org/1999/xlink" x="0px" y="0px"
	 width="90px" height="90px" viewBox="0 0 90 90" style="enable-background:new 0 0 90 90;" xml:space="preserve">
<style type="text/css">
	.st0{fill:#F96D00;}
</style>
<path class="st0" d="M13.3,19h63.5c2.3,0,4.1,1.9,4.1,4.1v43.6c0,0.8-0.2,1.6-0.7,2.3c-0.1,0.2-0.2,0.4-0.4,0.6
	c-0.1,0.1-0.2,0.2-0.4,0.3c-0.8,0.6-1.7,0.9-2.6,1H13.3c-2.3,0-4.1-1.8-4.1-4.1V23.2C9.2,20.9,11,19,13.3,19z M13.1,65l21.5-22.3
	L13.1,24.6V65z M37.8,45.5L14.8,67.7h60.1L53,45.5l-6.4,5.4l0,0c-0.6,0.5-1.4,0.5-2,0L37.8,45.5z M56.2,42.6l20.7,22.5V24.4
	L56.2,42.6z M15.1,22.2l30.5,24.7l29.1-24.7C74.6,22.2,15.1,22.2,15.1,22.2z"/>
</svg>
