<?xml version="1.0" encoding="UTF-8"?>
<!DOCTYPE svg PUBLIC "-//W3C//DTD SVG 1.1//EN" "http://www.w3.org/Graphics/SVG/1.1/DTD/svg11.dtd">
<svg xmlns="http://www.w3.org/2000/svg" version="1.1" width="500px" height="500px" style="shape-rendering:geometricPrecision; text-rendering:geometricPrecision; image-rendering:optimizeQuality; fill-rule:evenodd; clip-rule:evenodd" xmlns:xlink="http://www.w3.org/1999/xlink">
<g><path style="opacity:0.973" fill="#fefffe" d="M 271.5,117.5 C 287.17,117.333 302.837,117.5 318.5,118C 319.416,118.374 320.25,118.874 321,119.5C 321.667,135.5 321.667,151.5 321,167.5C 320.5,168 320,168.5 319.5,169C 310.5,169.333 301.5,169.667 292.5,170C 288.082,170.208 283.749,170.874 279.5,172C 277.951,173.214 276.785,174.714 276,176.5C 275.5,188.495 275.333,200.495 275.5,212.5C 289.504,212.333 303.504,212.5 317.5,213C 318.701,213.903 319.535,215.069 320,216.5C 320.667,232.5 320.667,248.5 320,264.5C 319.626,265.416 319.126,266.25 318.5,267C 304.217,268.411 289.884,268.911 275.5,268.5C 275.667,305.168 275.5,341.835 275,378.5C 274.426,380.492 273.259,381.992 271.5,383C 254.5,383.667 237.5,383.667 220.5,383C 219.667,382.167 218.833,381.333 218,380.5C 217.5,343.168 217.333,305.835 217.5,268.5C 205.495,268.667 193.495,268.5 181.5,268C 180.584,267.626 179.75,267.126 179,266.5C 177.862,258.097 177.362,249.597 177.5,241C 177.522,232.633 177.855,224.3 178.5,216C 179.992,214.115 181.992,213.115 184.5,213C 195.41,212.18 206.243,212.347 217,213.5C 217.333,200.167 217.667,186.833 218,173.5C 222.449,141.888 240.282,123.221 271.5,117.5 Z"/></g>
</svg>
