<?xml version="1.0" encoding="UTF-8"?>
<!DOCTYPE svg PUBLIC "-//W3C//DTD SVG 1.1//EN" "http://www.w3.org/Graphics/SVG/1.1/DTD/svg11.dtd">
<svg xmlns="http://www.w3.org/2000/svg" version="1.1" width="500px" height="500px" style="shape-rendering:geometricPrecision; text-rendering:geometricPrecision; image-rendering:optimizeQuality; fill-rule:evenodd; clip-rule:evenodd" xmlns:xlink="http://www.w3.org/1999/xlink">
<g><path style="opacity:0.954" fill="#fefffe" d="M 230.5,81.5 C 313.167,77.2232 372.001,112.223 407,186.5C 430.434,252.53 419.601,312.03 374.5,365C 329.716,410.379 275.716,427.046 212.5,415C 156.06,400.549 116.227,366.716 93,313.5C 69.6151,247.77 80.2818,188.437 125,135.5C 153.847,105.16 189.014,87.1598 230.5,81.5 Z M 235.5,108.5 C 306.51,106.419 356.01,137.753 384,202.5C 399.279,251.913 391.612,297.246 361,338.5C 319.259,385.817 267.759,401.317 206.5,385C 150.972,364.47 118.472,324.97 109,266.5C 104.744,200.156 131.911,151.656 190.5,121C 205.082,114.855 220.082,110.688 235.5,108.5 Z"/></g>
<g><path style="opacity:0.947" fill="#fefffe" d="M 221.5,171.5 C 225.44,171.758 229.107,172.924 232.5,175C 254.306,196.806 276.14,218.64 298,240.5C 302.15,246.263 302.483,252.263 299,258.5C 276.167,281.333 253.333,304.167 230.5,327C 212.802,330.634 206.636,323.801 212,306.5C 231.167,288 250,269.167 268.5,250C 249.721,231.221 230.887,212.387 212,193.5C 207.993,182.705 211.16,175.371 221.5,171.5 Z"/></g>
</svg>
