<?xml version="1.0" encoding="UTF-8"?>
<!DOCTYPE svg PUBLIC "-//W3C//DTD SVG 1.1//EN" "http://www.w3.org/Graphics/SVG/1.1/DTD/svg11.dtd">
<svg xmlns="http://www.w3.org/2000/svg" version="1.1" width="500px" height="500px" style="shape-rendering:geometricPrecision; text-rendering:geometricPrecision; image-rendering:optimizeQuality; fill-rule:evenodd; clip-rule:evenodd" xmlns:xlink="http://www.w3.org/1999/xlink">
<g><path style="opacity:0.91" fill="#fe6c00" d="M 235.5,79.5 C 264.335,77.0979 290.835,83.7645 315,99.5C 327.802,91.6217 341.636,86.6217 356.5,84.5C 365.625,84.3092 372.125,88.3092 376,96.5C 377.75,108.033 376.083,119.033 371,129.5C 366.802,138.734 361.968,147.567 356.5,156C 367.466,189.22 364.132,221.053 346.5,251.5C 359.476,268.783 369.309,287.783 376,308.5C 379.589,332.632 369.423,342.132 345.5,337C 326.47,330.57 308.97,321.403 293,309.5C 289.699,316.354 287.532,323.52 286.5,331C 288.09,332.046 289.59,333.213 291,334.5C 291.667,356.167 291.667,377.833 291,399.5C 287.927,409.573 281.427,416.406 271.5,420C 257.167,420.667 242.833,420.667 228.5,420C 218.91,416.077 212.41,409.244 209,399.5C 208.333,377.833 208.333,356.167 209,334.5C 211.178,333.353 212.678,331.687 213.5,329.5C 212.559,322.388 210.392,315.722 207,309.5C 190.416,322.543 171.916,332.043 151.5,338C 129.132,341.298 119.965,331.798 124,309.5C 126.887,299.059 130.887,289.059 136,279.5C 141.583,269.998 147.416,260.665 153.5,251.5C 135.839,221.014 132.506,189.181 143.5,156C 135.878,144.255 129.711,131.755 125,118.5C 123.533,111.223 123.199,103.889 124,96.5C 127.875,88.3092 134.375,84.3092 143.5,84.5C 158.512,86.6727 172.512,91.6727 185.5,99.5C 200.871,89.4898 217.538,82.8231 235.5,79.5 Z M 244.5,91.5 C 265.725,90.9091 285.391,96.0757 303.5,107C 284.68,119.164 266.846,132.664 250,147.5C 233.642,132.469 216.142,118.969 197.5,107C 211.968,97.9715 227.635,92.8049 244.5,91.5 Z M 140.5,96.5 C 152.967,97.8221 164.633,101.655 175.5,108C 164.762,117.729 155.929,128.896 149,141.5C 140.409,128.732 136.075,114.732 136,99.5C 137.409,98.2189 138.909,97.2189 140.5,96.5 Z M 354.5,96.5 C 361.722,95.4238 365.055,98.4238 364.5,105.5C 362.672,118.482 358.172,130.482 351,141.5C 344.071,128.896 335.238,117.729 324.5,108C 334.147,103.065 344.147,99.2317 354.5,96.5 Z M 185.5,114.5 C 205.232,126.224 223.565,139.89 240.5,155.5C 211.631,181.528 185.464,209.862 162,240.5C 149.343,217.879 146.01,193.879 152,168.5C 157.679,147.01 168.846,129.01 185.5,114.5 Z M 313.5,114.5 C 346.783,143.933 357.616,180.267 346,223.5C 344.032,229.432 341.532,235.099 338.5,240.5C 327.218,226.712 315.718,213.045 304,199.5C 289.625,184.291 274.792,169.624 259.5,155.5C 276.383,140.274 294.383,126.607 313.5,114.5 Z M 249.5,163.5 C 280.219,190.045 307.553,219.545 331.5,252C 322.225,264.63 310.892,274.963 297.5,283C 284.067,296.369 276.4,312.535 274.5,331.5C 271.428,331.817 268.428,331.484 265.5,330.5C 270.767,305.733 275.767,280.9 280.5,256C 280.333,251.833 278.167,249.667 274,249.5C 271.497,249.99 269.497,251.323 268,253.5C 265.713,249.47 262.546,248.636 258.5,251C 255.541,255.751 252.707,260.584 250,265.5C 247.607,259.466 244.107,254.299 239.5,250C 236.38,249.641 233.88,250.808 232,253.5C 226.362,247.62 222.195,248.454 219.5,256C 224.233,280.9 229.233,305.733 234.5,330.5C 231.572,331.484 228.572,331.817 225.5,331.5C 224.536,312.409 217.203,296.242 203.5,283C 190.02,274.753 178.353,264.419 168.5,252C 192.445,219.881 219.445,190.381 249.5,163.5 Z M 246.5,206.5 C 257.681,207.54 261.181,213.206 257,223.5C 251.042,228.98 245.376,228.647 240,222.5C 236.94,214.962 239.107,209.628 246.5,206.5 Z M 338.5,262.5 C 348.094,275.338 355.927,289.338 362,304.5C 364.9,311.757 365.066,318.924 362.5,326C 353.736,327.352 345.403,326.018 337.5,322C 324.008,315.76 311.342,308.26 299.5,299.5C 306.53,291.492 314.53,284.659 323.5,279C 329.076,273.929 334.076,268.429 338.5,262.5 Z M 160.5,263.5 C 166.584,268.744 172.584,274.244 178.5,280C 187.088,285.14 194.755,291.473 201.5,299C 185.801,311.004 168.468,320.004 149.5,326C 144.771,326.996 140.271,326.496 136,324.5C 134.818,316.865 135.818,309.531 139,302.5C 145.162,288.835 152.328,275.835 160.5,263.5 Z M 235.5,266.5 C 239.117,271.033 242.284,276.033 245,281.5C 249.325,284.569 252.992,283.902 256,279.5C 257.966,275.374 260.132,271.374 262.5,267.5C 263.274,266.289 264.107,266.289 265,267.5C 261.497,288.847 257.664,310.181 253.5,331.5C 251.167,331.5 248.833,331.5 246.5,331.5C 242.771,310.959 238.771,290.459 234.5,270C 234.648,268.744 234.982,267.577 235.5,266.5 Z M 220.5,343.5 C 240.167,343.5 259.833,343.5 279.5,343.5C 279.5,347.833 279.5,352.167 279.5,356.5C 259.833,356.5 240.167,356.5 220.5,356.5C 220.5,352.167 220.5,347.833 220.5,343.5 Z M 220.5,368.5 C 240.167,368.5 259.833,368.5 279.5,368.5C 279.5,372.833 279.5,377.167 279.5,381.5C 259.833,381.5 240.167,381.5 220.5,381.5C 220.5,377.167 220.5,372.833 220.5,368.5 Z M 220.5,393.5 C 240.167,393.5 259.833,393.5 279.5,393.5C 278.973,401.195 274.973,406.028 267.5,408C 255.833,408.667 244.167,408.667 232.5,408C 225.388,405.723 221.388,400.89 220.5,393.5 Z"/></g>
<g><path style="opacity:0.902" fill="#fe6c00" d="M 244.5,194.5 C 262.643,194.475 271.476,203.475 271,221.5C 265.982,236.519 255.815,242.019 240.5,238C 226.239,230.291 222.739,219.124 230,204.5C 233.689,199.28 238.522,195.947 244.5,194.5 Z M 246.5,206.5 C 239.107,209.628 236.94,214.962 240,222.5C 245.376,228.647 251.042,228.98 257,223.5C 261.181,213.206 257.681,207.54 246.5,206.5 Z"/></g>
</svg>
