<?xml version="1.0" encoding="utf-8"?>
<!-- Generator: Adobe Illustrator 27.4.0, SVG Export Plug-In . SVG Version: 6.00 Build 0)  -->
<svg version="1.1" id="Layer_1" xmlns="http://www.w3.org/2000/svg" xmlns:xlink="http://www.w3.org/1999/xlink" x="0px" y="0px"
	 width="90px" height="88.9px" viewBox="0 0 90 88.9" style="enable-background:new 0 0 90 88.9;" xml:space="preserve">
<style type="text/css">
	.st0{opacity:0.957;fill-rule:evenodd;clip-rule:evenodd;fill:#F96D00;enable-background:new    ;}
	.st1{opacity:0.927;fill-rule:evenodd;clip-rule:evenodd;fill:#F96D00;enable-background:new    ;}
	.st2{opacity:0.952;fill-rule:evenodd;clip-rule:evenodd;fill:#F96D00;enable-background:new    ;}
</style>
<g>
	<g>
		<path class="st0" d="M29.7,10.3c10.3-0.1,20.6,0,30.8,0.1C69,10.8,74.8,14.8,78,22.5c0.5,1.5,0.8,3,1,4.6
			c0.2,11.5,0.2,23.1,0,34.7c-1.8,10.1-7.9,15.7-18.2,16.7c-10.4,0.2-20.7,0.2-31.1,0c-10.9-1.1-17-7-18.5-17.7
			c-0.5-10.9-0.5-21.7,0-32.6C12.8,17.4,18.9,11.5,29.7,10.3z M32.6,16.7c9.4-0.1,18.9,0,28.3,0.4c6.2,0.8,10,4.2,11.3,10.3
			c0.8,11.4,0.8,22.8,0,34.1c-1.7,7.1-6.2,10.7-13.6,10.6c-9.2,0.2-18.3,0.2-27.5,0c-8.6-0.2-13.2-4.6-13.9-13.1
			c-0.2-9.6-0.2-19.2,0-28.8c0.2-6.9,3.5-11.1,10.1-12.9C29.1,17.1,30.9,16.9,32.6,16.7z"/>
	</g>
	<g>
		<path class="st1" d="M61.7,22c4.4-0.2,6.1,1.9,5.2,6.1c-1.6,2.3-3.7,2.9-6.2,1.7c-1.7-1.5-2.1-3.3-1.4-5.5
			C59.9,23.3,60.7,22.6,61.7,22z"/>
	</g>
	<g>
		<path class="st2" d="M41.8,26.9c9.4-0.8,15.9,3,19.7,11.5c2.5,8.7,0.1,15.7-7,21c-9.2,4.8-17.3,3.3-24.1-4.5
			c-3.5-5.4-4.2-11.2-2-17.3C31.1,31.8,35.6,28.2,41.8,26.9z M43.1,33.2c-6.7,1.9-9.8,6.3-9.3,13.3c1.8,6.5,6.1,9.5,12.9,9
			c5.9-1.4,9-5.1,9.4-11.1C55.1,36.8,50.8,33.1,43.1,33.2z"/>
	</g>
</g>
</svg>
