<?xml version="1.0" encoding="utf-8"?>
<!-- Generator: Adobe Illustrator 27.4.0, SVG Export Plug-In . SVG Version: 6.00 Build 0)  -->
<svg version="1.1" id="Layer_1" xmlns="http://www.w3.org/2000/svg" xmlns:xlink="http://www.w3.org/1999/xlink" x="0px" y="0px"
	 width="500px" height="500px" viewBox="0 0 500 500" style="enable-background:new 0 0 500 500;" xml:space="preserve">
<style type="text/css">
	.st0{opacity:0.957;fill-rule:evenodd;clip-rule:evenodd;fill:#FEFFFE;enable-background:new    ;}
	.st1{opacity:0.927;fill-rule:evenodd;clip-rule:evenodd;fill:#FEFFFE;enable-background:new    ;}
	.st2{opacity:0.952;fill-rule:evenodd;clip-rule:evenodd;fill:#FEFFFE;enable-background:new    ;}
</style>
<g>
	<path class="st0" d="M190,115.5c40.3-0.2,80.7,0,121,0.5c33.1,1.4,55.9,17.3,68.5,47.5c1.8,5.9,3.2,11.9,4,18
		c0.7,45.3,0.7,90.7,0,136c-7.1,39.8-31,61.6-71.5,65.5c-40.7,0.7-81.3,0.7-122,0c-42.6-4.2-66.7-27.4-72.5-69.5
		c-2-42.7-2-85.3,0-128C123.5,143.4,147.6,120,190,115.5z M201.5,140.5c37-0.4,74,0.1,111,1.5c24.4,3.1,39.2,16.6,44.5,40.5
		c3.3,44.7,3.3,89.3,0,134c-6.7,28-24.5,41.8-53.5,41.5c-36,0.7-72,0.7-108,0c-33.7-0.7-51.9-17.9-54.5-51.5
		c-0.7-37.7-0.7-75.3,0-113c0.6-26.9,13.7-43.7,39.5-50.5C187.6,142.1,194.6,141.3,201.5,140.5z"/>
</g>
<g>
	<path class="st1" d="M315.5,161.5c17.1-0.7,24,7.3,20.5,24c-6.2,9.2-14.4,11.4-24.5,6.5c-6.5-6-8.4-13.1-5.5-21.5
		C308.4,166.6,311.6,163.6,315.5,161.5z"/>
</g>
<g>
	<path class="st2" d="M237.5,180.5c36.7-3.1,62.5,11.9,77.5,45c9.7,34.2,0.5,61.7-27.5,82.5c-36.3,18.9-67.8,13.1-94.5-17.5
		c-13.6-21.3-16.3-43.9-8-68C195.6,199.8,213.1,185.8,237.5,180.5z M242.5,205.5c-26.4,7.3-38.6,24.6-36.5,52
		c7.1,25.4,23.9,37.2,50.5,35.5c23-5.5,35.3-20,37-43.5C289.8,219.5,272.8,204.8,242.5,205.5z"/>
</g>
</svg>
