<?xml version="1.0" encoding="utf-8"?>
<!-- Generator: Adobe Illustrator 27.4.0, SVG Export Plug-In . SVG Version: 6.00 Build 0)  -->
<svg version="1.1" id="Layer_1" xmlns="http://www.w3.org/2000/svg" xmlns:xlink="http://www.w3.org/1999/xlink" x="0px" y="0px"
	 width="500px" height="500px" viewBox="0 0 500 500" style="enable-background:new 0 0 500 500;" xml:space="preserve">
<style type="text/css">
	.st0{opacity:0.898;fill-rule:evenodd;clip-rule:evenodd;fill:#F96D00;enable-background:new    ;}
	.st1{opacity:0.901;fill-rule:evenodd;clip-rule:evenodd;fill:#F96D00;enable-background:new    ;}
	.st2{opacity:0.904;fill-rule:evenodd;clip-rule:evenodd;fill:#F96D00;enable-background:new    ;}
	.st3{opacity:0.9;fill-rule:evenodd;clip-rule:evenodd;fill:#F96D00;enable-background:new    ;}
	.st4{opacity:0.859;fill-rule:evenodd;clip-rule:evenodd;fill:#F96D00;enable-background:new    ;}
	.st5{opacity:0.864;fill-rule:evenodd;clip-rule:evenodd;fill:#F96D00;enable-background:new    ;}
	.st6{opacity:0.897;fill-rule:evenodd;clip-rule:evenodd;fill:#F96D00;enable-background:new    ;}
</style>
<g>
	<path class="st0" d="M243.5,80.5c7-1.3,13,0.4,18,5c3.5,6.6,7.2,13.1,11,19.5c8.1,1.2,16.1,2.9,24,5c7.2,5.9,8.7,13.1,4.5,21.5
		c-5.4,5.6-10.6,11.2-15.5,17c1.8,7.6,2.6,15.3,2.5,23c-2.8,9.1-9,13-18.5,11.5c-6.7-3.1-13.4-6.2-20-9.5c-5.7,2.8-11.3,5.7-17,8.5
		c-12,3.6-19.4-0.7-22-13c1.5-7.5,2.4-15,2.5-22.5c-4.7-4.7-9.4-9.4-14-14c-5.9-10.1-3.7-17.9,6.5-23.5c7-1.4,14-2.8,21-4
		c4-6.4,7.9-12.9,11.5-19.5C239.7,83.6,241.6,81.9,243.5,80.5z M249.5,92.5c4.1,5,7.3,10.7,9.5,17c1.5,2.5,3.3,4.6,5.5,6.5
		c8.5,2.7,17.2,4.5,26,5.5c0.2,1.2-0.1,2.2-1,3c-5.6,5.2-10.8,10.9-15.5,17c-1.2,8.7-0.7,17.4,1.5,26c0,1.5-0.6,2.5-2,3
		c-7.5-4.4-15.5-7.8-24-10c-8.4,2.2-16.4,5.5-24,10c-0.3-1.7-0.7-3.3-1-5c1.6-7.6,2.1-15.3,1.5-23c-4.5-6.5-9.9-12.5-16-18
		c-0.5-0.9-0.6-1.9-0.5-3c8.5-1,16.9-2.8,25-5.5c2.2-1.9,4-4,5.5-6.5C242.9,103.6,246.1,97.9,249.5,92.5z"/>
</g>
<g>
	<path class="st1" d="M143.5,134.5c9.1-0.6,14.9,3.4,17.5,12c0.3,7.3,0.7,14.7,1,22c5.5,4.2,11,8.3,16.5,12.5c7.2,8.7,6.5,16.7-2,24
		c-7.1,3.1-14.5,5.6-22,7.5c-2.2,8.3-5.2,16.3-9,24c-5.7,5.4-12.1,6.2-19,2.5c-5.6-5.7-10.6-11.9-15-18.5c-7.6-0.8-15.3-1.3-23-1.5
		c-10-3.4-13.5-10.2-10.5-20.5c4.4-6.2,8.6-12.6,12.5-19c-12.9-33.9-2.4-44.3,31.5-31C128.8,143.2,136,138.5,143.5,134.5z
		 M146.5,147.5c0.6,0.1,1.1,0.4,1.5,1c0.2,8.7,0.8,17.4,2,26c6.3,6.4,13.1,12.2,20.5,17.5c-6.9,3.9-14.2,6.9-22,9
		c-1.5,1.5-3,3-4.5,4.5c-2.8,7.2-5.3,14.6-7.5,22c-1.5,0.3-2.8-0.1-4-1c-4.5-6.6-9.5-12.8-15-18.5c-8.3-1.2-16.6-1.9-25-2
		c-1.1-0.2-2.1-0.7-3-1.5c4.7-6.2,9.2-12.5,13.5-19c0.7-4,0.7-8,0-12c-2.1-5.9-4-11.9-5.5-18c6.8,1.2,13.5,3,20,5.5c3,0.7,6,0.7,9,0
		C133.4,156.7,140,152.2,146.5,147.5z"/>
</g>
<g>
	<path class="st2" d="M348.5,134.5c3.8-0.2,7.4,0.3,11,1.5c5.9,4.5,12.1,8.7,18.5,12.5c33.9-12.9,44-2.6,30.5,31
		c4.2,6.3,8.3,12.6,12.5,19c2.9,10.4-0.6,17.2-10.5,20.5c-7.3,0.3-14.7,0.7-22,1c-4.2,5.6-8.5,11.1-13,16.5
		c-7.8,6.9-15.3,6.6-22.5-1c-3.8-7.1-6.6-14.6-8.5-22.5c-7.3-2.7-14.7-5.3-22-8c-5.7-4.9-7.6-11.1-5.5-18.5c1-1.8,2.1-3.5,3.5-5
		c5.4-4.5,10.9-8.8,16.5-13c0.3-7,0.7-14,1-21C339.5,141.5,343,137.1,348.5,134.5z M351.5,147.5c7.1,4.7,14.5,9.2,22,13.5
		c2.7,0.7,5.3,0.7,8,0c6.6-2.1,13.3-4,20-5.5c-1.4,7.1-3.2,14.1-5.5,21c-0.7,2.3-0.7,4.7,0,7c4,7.3,8.5,14.3,13.5,21
		c-0.5,0.7-1.2,1.2-2,1.5c-7.7,0.3-15.3,0.7-23,1c-1.3,0.7-2.7,1.3-4,2c-5.2,6.5-10.3,13-15.5,19.5c-0.4-0.5-0.9-0.8-1.5-1
		c-2.6-7-5.1-14-7.5-21c-1.4-1.2-2.5-2.5-3.5-4c-7.9-3.5-15.9-6.9-24-10c5.2-4.3,10.5-8.5,16-12.5c1.9-1.6,3.4-3.4,4.5-5.5
		C350.1,165.5,351,156.5,351.5,147.5z"/>
</g>
<g>
	<path class="st3" d="M236.5,196.5c54.6-2.8,93.4,20.2,116.5,69c16.5,46.6,7.7,87.6-26.5,123c-36.2,31.6-76.8,38.8-122,21.5
		c-42.1-21-64.4-55.2-67-102.5c3.6-53.1,30.2-88.6,80-106.5C223.9,199.3,230.3,197.8,236.5,196.5z M238.5,209.5
		c49.4-2,83.9,19.3,103.5,64c13.6,44.8,2.8,82.3-32.5,112.5c-38.6,26.1-77.6,26.7-117,2c-37.9-30.7-49.4-69.5-34.5-116.5
		C173.7,236.3,200.5,215.7,238.5,209.5z"/>
</g>
<g>
	<path class="st4" d="M207.5,264.5c13-1.1,22.2,4.2,27.5,16c1.3,4,0.2,7-3.5,9c-1.2-0.4-2.2-1.1-3-2c-2.6-7.2-7.7-10.5-15.5-10
		c-7.8-0.6-12.8,2.7-15,10c-4.3,2.6-6.8,1.3-7.5-4C192.3,273.7,198,267.3,207.5,264.5z"/>
</g>
<g>
	<path class="st5" d="M281.5,264.5c10.9-1,19.4,3,25.5,12c1.5,3.6,1.7,7.3,0.5,11c-0.8,0.9-1.8,1.6-3,2c-2.2-3-4.5-6-7-9
		c-8.6-4.4-16.8-3.7-24.5,2c-0.8,2.4-2,4.6-3.5,6.5c-4.1,0.3-5.7-1.7-5-6C266.5,273.5,272.2,267.3,281.5,264.5z"/>
</g>
<g>
	<path class="st6" d="M241.5,316.5c17.3-0.2,34.7,0,52,0.5c13.3,2.8,18.8,10.9,16.5,24.5c-17.3,34.4-44.8,46.9-82.5,37.5
		c-20.3-8.1-33.3-22.6-39-43.5c0.8-8.5,5.2-14.3,13-17.5C215,317.8,228.3,317.3,241.5,316.5z M204.5,330.5c-0.6,1.1-1.5,2.1-2.5,3
		c1.8,9.5,6.6,17.2,14.5,23c8.5-10.3,19.5-15.6,33-16c14,0.3,25.2,5.9,33.5,17c7-5.9,11.9-13.2,14.5-22c-0.3-1.7-0.9-3.2-2-4.5
		C265.2,330.5,234.8,330.3,204.5,330.5z M242.5,354.5c-5.9,1.6-10.9,4.8-15,9.5c14.7,7.3,29.3,7.3,44,0c-0.7-1-1.3-2-2-3
		C261.4,355.2,252.4,353.1,242.5,354.5z"/>
</g>
</svg>
