<?xml version="1.0" encoding="utf-8"?>
<!-- Generator: Adobe Illustrator 27.4.0, SVG Export Plug-In . SVG Version: 6.00 Build 0)  -->
<svg version="1.1" id="Layer_1" xmlns="http://www.w3.org/2000/svg" xmlns:xlink="http://www.w3.org/1999/xlink" x="0px" y="0px"
	 width="80px" height="80px" viewBox="0 0 80 80" style="enable-background:new 0 0 80 80;" xml:space="preserve">
<style type="text/css">
	.st0{fill:none;stroke:#F96D00;stroke-width:3;stroke-linecap:round;stroke-linejoin:round;stroke-miterlimit:10;}
	.st1{fill:none;stroke:#F96D00;stroke-width:3;stroke-miterlimit:10;}
</style>
<path id="XMLID_802_" class="st0" d="M26.6,31H16.5c-0.4,0-0.8,0.4-0.8,0.8v32.4c0,0.4,0.4,0.8,0.8,0.8h10.1c0.4,0,0.8-0.4,0.8-0.8
	V31.9C27.4,31.4,27,31,26.6,31z"/>
<path id="XMLID_803_" class="st1" d="M21.5,12.9c-3.7,0-6.7,3-6.7,6.6c0,3.7,3,6.7,6.7,6.7c3.7,0,6.7-3,6.7-6.7
	C28.2,15.9,25.2,12.9,21.5,12.9z"/>
<path id="XMLID_804_" class="st0" d="M52.2,30.2c-4.1,0-7.1,1.7-8.9,3.7v-2.1c0-0.4-0.4-0.8-0.8-0.8h-9.7c-0.4,0-0.8,0.4-0.8,0.8
	v32.4c0,0.4,0.4,0.8,0.8,0.8H43c0.4,0,0.8-0.4,0.8-0.8v-16c0-5.4,1.5-7.5,5.2-7.5c4.1,0,4.4,3.4,4.4,7.8v15.8c0,0.4,0.4,0.8,0.8,0.8
	h10.1c0.4,0,0.8-0.4,0.8-0.8V46.5C65.1,38.4,63.6,30.2,52.2,30.2z"/>
</svg>
