<?xml version="1.0" encoding="UTF-8"?>
<!DOCTYPE svg PUBLIC "-//W3C//DTD SVG 1.1//EN" "http://www.w3.org/Graphics/SVG/1.1/DTD/svg11.dtd">
<svg xmlns="http://www.w3.org/2000/svg" version="1.1" width="500px" height="500px" style="shape-rendering:geometricPrecision; text-rendering:geometricPrecision; image-rendering:optimizeQuality; fill-rule:evenodd; clip-rule:evenodd" xmlns:xlink="http://www.w3.org/1999/xlink">
<g><path style="opacity:0.961" fill="#fefffe" d="M 143.5,120.5 C 160.97,118.148 173.47,124.815 181,140.5C 185.338,156.073 181.171,168.74 168.5,178.5C 151.912,187.06 137.412,184.393 125,170.5C 114.099,147.33 120.265,130.663 143.5,120.5 Z"/></g>
<g><path style="opacity:0.98" fill="#fefffe" d="M 305.5,201.5 C 346.786,197.678 370.619,216.011 377,256.5C 377.5,297.165 377.667,337.832 377.5,378.5C 359.5,378.5 341.5,378.5 323.5,378.5C 323.667,344.832 323.5,311.165 323,277.5C 323.088,268.852 320.255,261.352 314.5,255C 300.589,247.104 287.256,247.938 274.5,257.5C 269.165,263.842 266.331,271.175 266,279.5C 265.5,312.498 265.333,345.498 265.5,378.5C 247.5,378.5 229.5,378.5 211.5,378.5C 211.5,320.833 211.5,263.167 211.5,205.5C 228.503,205.333 245.503,205.5 262.5,206C 263.315,213.087 263.815,220.253 264,227.5C 273.994,212.592 287.827,203.925 305.5,201.5 Z"/></g>
<g><path style="opacity:0.98" fill="#fefffe" d="M 124.5,205.5 C 142.5,205.5 160.5,205.5 178.5,205.5C 178.5,263.167 178.5,320.833 178.5,378.5C 160.014,378.986 141.68,378.486 123.5,377C 124.488,319.727 124.821,262.56 124.5,205.5 Z"/></g>
</svg>
