<?xml version="1.0" encoding="UTF-8"?>
<!DOCTYPE svg PUBLIC "-//W3C//DTD SVG 1.1//EN" "http://www.w3.org/Graphics/SVG/1.1/DTD/svg11.dtd">
<svg xmlns="http://www.w3.org/2000/svg" version="1.1" width="500px" height="500px" style="shape-rendering:geometricPrecision; text-rendering:geometricPrecision; image-rendering:optimizeQuality; fill-rule:evenodd; clip-rule:evenodd" xmlns:xlink="http://www.w3.org/1999/xlink">
<g><path style="opacity:0.956" fill="#fefffe" d="M 88.5,129.5 C 196.167,129.333 303.834,129.5 411.5,130C 423.333,133.833 431.167,141.667 435,153.5C 435.667,224.833 435.667,296.167 435,367.5C 431.167,379.333 423.333,387.167 411.5,391C 303.833,391.667 196.167,391.667 88.5,391C 76.0971,387.597 67.9304,379.764 64,367.5C 63.3333,296.167 63.3333,224.833 64,153.5C 68.111,141.221 76.2777,133.221 88.5,129.5 Z M 103.5,152.5 C 200.834,152.333 298.167,152.5 395.5,153C 348.833,199.667 302.167,246.333 255.5,293C 251.5,295 247.5,295 243.5,293C 196.632,246.299 149.965,199.465 103.5,152.5 Z M 85.5,167.5 C 116.289,197.958 146.956,228.958 177.5,260.5C 146.948,291.755 116.448,322.755 86,353.5C 85.5,291.501 85.3333,229.501 85.5,167.5 Z M 412.5,167.5 C 413.665,229.332 413.832,291.332 413,353.5C 382.845,322.508 352.345,291.508 321.5,260.5C 352.354,229.65 382.687,198.65 412.5,167.5 Z M 103.5,368.5 C 133.479,337.854 163.812,307.521 194.5,277.5C 205.653,288.152 216.653,298.986 227.5,310C 242.167,320 256.833,320 271.5,310C 282.347,298.986 293.347,288.152 304.5,277.5C 334.986,307.486 365.32,337.653 395.5,368C 298.167,368.5 200.834,368.667 103.5,368.5 Z"/></g>
</svg>
