<?xml version="1.0" encoding="UTF-8"?>
<!DOCTYPE svg PUBLIC "-//W3C//DTD SVG 1.1//EN" "http://www.w3.org/Graphics/SVG/1.1/DTD/svg11.dtd">
<svg xmlns="http://www.w3.org/2000/svg" version="1.1" width="500px" height="500px" style="shape-rendering:geometricPrecision; text-rendering:geometricPrecision; image-rendering:optimizeQuality; fill-rule:evenodd; clip-rule:evenodd" xmlns:xlink="http://www.w3.org/1999/xlink">
<g><path style="opacity:0.927" fill="#fefffe" d="M 230.5,78.5 C 304.979,73.9843 361.479,103.318 400,166.5C 422.023,208.628 426.69,252.628 414,298.5C 394.833,356.333 356.333,394.833 298.5,414C 228.195,431.639 168.362,414.139 119,361.5C 80.7078,313.715 69.3745,260.048 85,200.5C 104.167,142.667 142.667,104.167 200.5,85C 210.539,82.3612 220.539,80.1945 230.5,78.5 Z M 247.5,93.5 C 315.458,96.373 363.958,128.373 393,189.5C 417.22,257.077 403.72,315.911 352.5,366C 303.426,406.212 249.092,415.212 189.5,393C 128.869,364.323 96.8685,316.323 93.5,249C 97.3415,182.202 129.341,134.536 189.5,106C 208.268,98.5484 227.602,94.3817 247.5,93.5 Z"/></g>
<g><path style="opacity:0.961" fill="#fefffe" d="M 244.5,186.5 C 250.898,185.053 255.731,187.053 259,192.5C 259.5,208.83 259.667,225.163 259.5,241.5C 275.503,241.333 291.503,241.5 307.5,242C 312.689,243.534 315.023,247.034 314.5,252.5C 314.793,257.054 312.793,260.22 308.5,262C 292.17,262.5 275.837,262.667 259.5,262.5C 259.667,278.837 259.5,295.17 259,311.5C 257.22,315.793 254.054,317.793 249.5,317.5C 244.072,318.037 240.572,315.704 239,310.5C 238.5,294.503 238.333,278.503 238.5,262.5C 222.163,262.667 205.83,262.5 189.5,262C 185.198,260.065 183.198,256.732 183.5,252C 183.609,247.117 185.942,243.784 190.5,242C 206.497,241.5 222.497,241.333 238.5,241.5C 238.333,225.497 238.5,209.497 239,193.5C 239.967,190.379 241.8,188.046 244.5,186.5 Z"/></g>
</svg>
