<?xml version="1.0" encoding="utf-8"?>
<!-- Generator: Adobe Illustrator 27.4.0, SVG Export Plug-In . SVG Version: 6.00 Build 0)  -->
<svg version="1.1"
	 id="Layer_1" image-rendering="optimizeQuality" shape-rendering="geometricPrecision" text-rendering="geometricPrecision"
	 xmlns="http://www.w3.org/2000/svg" xmlns:xlink="http://www.w3.org/1999/xlink" x="0px" y="0px" width="20px" height="20px"
	 viewBox="0 0 20 20" style="enable-background:new 0 0 20 20;" xml:space="preserve">
<style type="text/css">
	.st0{fill:#86B13E;}
</style>
<path class="st0" d="M16.5,13.1c0-0.6,0.5-1,1-1c0.6,0,1,0.5,1,1V16c0,0.7-0.3,1.3-0.8,1.8c-0.5,0.5-1.1,0.8-1.8,0.8H4
	c-0.7,0-1.4-0.3-1.8-0.8c-0.5-0.5-0.8-1.1-0.8-1.8V4c0-0.7,0.3-1.4,0.8-1.8S3.3,1.4,4,1.4H7c0.6,0,1,0.5,1,1c0,0.6-0.5,1-1,1H4
	c-0.1,0-0.3,0.1-0.4,0.1C3.6,3.7,3.5,3.9,3.5,4v12c0,0.1,0.1,0.3,0.1,0.4c0.1,0.1,0.2,0.1,0.4,0.1H16c0.1,0,0.3-0.1,0.4-0.1
	c0.1-0.1,0.1-0.2,0.1-0.4V13.1z M16.5,4.9l-4.7,4.7c-0.4,0.4-1.1,0.4-1.5,0s-0.4-1.1,0-1.5l4.6-4.7h-3.1c-0.6,0-1-0.5-1-1
	c0-0.6,0.5-1,1-1h5.6c0.6,0,1,0.5,1,1V8c0,0.6-0.5,1-1,1c-0.6,0-1-0.5-1-1V4.9L16.5,4.9z"/>
</svg>
