<?xml version="1.0" encoding="utf-8"?>
<!-- Generator: Adobe Illustrator 27.4.0, SVG Export Plug-In . SVG Version: 6.00 Build 0)  -->
<svg version="1.1" id="Layer_1" xmlns="http://www.w3.org/2000/svg" xmlns:xlink="http://www.w3.org/1999/xlink" x="0px" y="0px"
	 width="500px" height="500px" viewBox="0 0 500 500" style="enable-background:new 0 0 500 500;" xml:space="preserve">
<style type="text/css">
	.st0{opacity:0.956;fill-rule:evenodd;clip-rule:evenodd;fill:#F96D00;enable-background:new    ;}
</style>
<g>
	<path class="st0" d="M202.5,97.5c32.7-0.5,65.4,0,98,1.5c8.2,2.5,14.1,7.7,17.5,15.5c3.1,7.3,4.3,15,3.5,23c31.3-0.2,62.7,0,94,0.5
		c3.1,0.8,5.2,2.6,6.5,5.5c1,80,0.7,160-1,240c-4.7,8.3-11.5,14.2-20.5,17.5c-100.3,0.7-200.7,0.7-301,0
		c-11.7-4.4-19.2-12.5-22.5-24.5c-0.7-77-0.7-154,0-231c1.2-3.8,3.7-6.3,7.5-7.5c31.3-0.5,62.7-0.7,94-0.5
		c-1.5-14.4,3.2-26.2,14-35.5C196,100.7,199.4,99.2,202.5,97.5z M207.5,118.5c28.3-0.2,56.7,0,85,0.5c7,4.1,9.7,10.3,8,18.5
		c-33.7,0-67.3,0-101,0C197.9,129.2,200.6,122.8,207.5,118.5z M102.5,159.5c98.3-0.3,196.7,0,295,1c-10.7,31.8-21.5,63.4-32.5,95
		c-2.2,1.7-4.7,2.9-7.5,3.5c-19,0.5-38,0.7-57,0.5c0.2-5,0-10-0.5-15c-1.9-2.2-4-4-6.5-5.5c-29-0.7-58-0.7-87,0
		c-2.5,1.5-4.6,3.3-6.5,5.5c-0.5,5-0.7,10-0.5,15c-19,0.2-38,0-57-0.5c-2.8-0.6-5.3-1.8-7.5-3.5C123.9,223.6,113,191.6,102.5,159.5z
		 M97.5,213.5c6.2,18,12.7,36,19.5,54c5.3,6.7,12.2,10.8,20.5,12.5c20.7,0.5,41.3,0.7,62,0.5c-0.2,4.7,0,9.3,0.5,14
		c1.5,2.2,3.3,4,5.5,5.5c29.7,0.7,59.3,0.7,89,0c2.2-1.5,4-3.3,5.5-5.5c0.5-4.7,0.7-9.3,0.5-14c20.7,0.2,41.3,0,62-0.5
		c10.6-2.1,18.5-7.9,23.5-17.5c4.9-16.5,10.2-32.8,16-49c0.7,52.7,0.7,105.3,0,158c-0.8,4.8-3.7,7.7-8.5,8.5
		c-95.7,0.7-191.3,0.7-287,0c-4.8-0.8-7.7-3.7-8.5-8.5C97.5,318.8,97.3,266.2,97.5,213.5z M220.5,260.5c19.7,0,39.3,0,59,0
		c0,6.3,0,12.7,0,19c-19.7,0-39.3,0-59,0C220.5,273.2,220.5,266.8,220.5,260.5z"/>
</g>
</svg>
