<?xml version="1.0" encoding="utf-8"?>
<!-- Generator: Adobe Illustrator 27.4.0, SVG Export Plug-In . SVG Version: 6.00 Build 0)  -->
<svg version="1.1" id="Layer_1" xmlns="http://www.w3.org/2000/svg" xmlns:xlink="http://www.w3.org/1999/xlink" x="0px" y="0px"
	 width="500px" height="500px" viewBox="0 0 500 500" style="enable-background:new 0 0 500 500;" xml:space="preserve">
<style type="text/css">
	.st0{opacity:0.917;fill-rule:evenodd;clip-rule:evenodd;fill:#F96D00;enable-background:new    ;}
</style>
<g>
	<path class="st0" d="M183.5,73.5c44-0.2,88,0,132,0.5c15.2,4.6,23.7,14.8,25.5,30.5c0.5,9,0.7,18,0.5,27c28.7-0.2,57.3,0,86,0.5
		c7.8,1.1,13.3,5.3,16.5,12.5c0.7,53,0.7,106,0,159c-1.9,5.6-5.6,9.6-11,12c-0.3,31.7-0.7,63.3-1,95c-2.9,6.9-7.7,11.7-14.5,14.5
		c-112,0.7-224,0.7-336,0c-6.1-2.4-10.6-6.6-13.5-12.5c-0.2-32.3-0.7-64.7-1.5-97c-5.8-2.6-9.6-7-11.5-13c-0.7-52-0.7-104,0-156
		c2.4-8.4,7.9-13.2,16.5-14.5c28.7-0.5,57.3-0.7,86-0.5c-0.2-9,0-18,0.5-27C160.4,89,168.9,78.7,183.5,73.5z M187.5,87.5
		c41.3-0.2,82.7,0,124,0.5c7.3,1.3,12.1,5.5,14.5,12.5c0.5,10.3,0.7,20.7,0.5,31c-3.7,0-7.3,0-11,0c0.4-9.7-0.1-19.4-1.5-29
		c-0.9-1.2-2.1-2-3.5-2.5c-40.7-0.7-81.3-0.7-122,0c-2.3,1.1-3.8,2.9-4.5,5.5c-0.5,8.7-0.7,17.3-0.5,26c-3.7,0-7.3,0-11,0
		c-0.4-11.1,0.1-22.1,1.5-33C177.2,93.2,181.7,89.5,187.5,87.5z M198.5,113.5c34.3,0,68.7,0,103,0c0,6,0,12,0,18
		c-34.3,0-68.7,0-103,0C198.5,125.5,198.5,119.5,198.5,113.5z M71.5,146.5c119-0.3,238,0,357,1c1.1,1.2,1.9,2.5,2.5,4
		c0.7,48.7,0.7,97.3,0,146c-1.4,4-4.2,5.8-8.5,5.5c-48.7,6.7-97.3,13.2-146,19.5c1.9-13.2-3.1-22.3-15-27.5c-8-0.7-16-0.7-24,0
		c-12.1,5.5-17,15-14.5,28.5C172.6,316.1,122.1,309,71.5,302c-0.8-0.8-1.7-1.7-2.5-2.5c-0.7-50-0.7-100,0-150
		C70,148.6,70.9,147.6,71.5,146.5z M241.5,308.5c5.3-0.2,10.7,0,16,0.5c2.2,0.8,3.7,2.3,4.5,4.5c0.7,13.7,0.7,27.3,0,41
		c-0.8,2.2-2.3,3.7-4.5,4.5c-5.3,0.7-10.7,0.7-16,0c-1.4-0.5-2.6-1.3-3.5-2.5c-0.7-15-0.7-30,0-45
		C239.1,310.4,240.3,309.4,241.5,308.5z M81.5,318.5c47.4,6.1,94.7,12.5,142,19c-4,29.5,8.6,41.3,38,35.5c11.7-5.1,16.7-14.1,15-27
		c0-2.8-0.4-5.4-1-8c47.6-6.7,95.1-13.6,142.5-20.5c0.7,29.3,0.7,58.7,0,88c-0.3,1.8-1.1,3.3-2.5,4.5c-109.9,1.7-219.9,2-330,1
		c-1.4-0.5-2.6-1.3-3.5-2.5C81.5,378.5,81.3,348.5,81.5,318.5z"/>
</g>
</svg>
