<?xml version="1.0" encoding="utf-8"?>
<!-- Generator: Adobe Illustrator 27.4.0, SVG Export Plug-In . SVG Version: 6.00 Build 0)  -->
<svg version="1.1" id="Layer_1" xmlns="http://www.w3.org/2000/svg" xmlns:xlink="http://www.w3.org/1999/xlink" x="0px" y="0px"
	 width="500px" height="500px" viewBox="0 0 500 500" style="enable-background:new 0 0 500 500;" xml:space="preserve">
<style type="text/css">
	.st0{opacity:0.913;fill-rule:evenodd;clip-rule:evenodd;fill:#003F61;enable-background:new    ;}
	.st1{opacity:0.936;fill-rule:evenodd;clip-rule:evenodd;fill:#003F61;enable-background:new    ;}
	.st2{opacity:0.867;fill-rule:evenodd;clip-rule:evenodd;fill:#003F61;enable-background:new    ;}
	.st3{opacity:0.853;fill-rule:evenodd;clip-rule:evenodd;fill:#003F61;enable-background:new    ;}
	.st4{opacity:0.825;fill-rule:evenodd;clip-rule:evenodd;fill:#003F61;enable-background:new    ;}
	.st5{opacity:0.822;fill-rule:evenodd;clip-rule:evenodd;fill:#003F61;enable-background:new    ;}
</style>
<g>
	<g>
		<path class="st0" d="M320.5,86.7c19-3.3,32.3,3.9,39.6,21.5c1,3,1.4,6.1,1.4,9.3c42.8-6.8,60.2,11,52.2,53.6
			c-0.2,11.7-0.3,23.3-0.5,35c-3.9,10.1-11.2,16.2-21.9,18.2c-14.6,0.3-29.2,0.6-43.8,0.9c-8.4,9.6-16.8,19.3-25.2,28.9
			c-11.9,4.7-20.1,1.1-24.7-10.7c-0.5-6.2-0.6-12.4-0.5-18.7c-10.3-0.3-20.5,0-30.8,0.9c-2.1,16-9.1,29.4-21,40.1
			c-2.5,17.1-11.2,29.8-26.1,38.2c-0.8,3.5-0.6,6.9,0.5,10.3c11.7,3.3,23.5,6.1,35.4,8.4c-0.2-12.4,0-24.9,0.5-37.3
			c2.9-8.8,8.6-14.8,17.3-18.2c40.1-1.5,80.2-1.8,120.3-0.9c9.6,2.8,16.3,8.9,20.1,18.2c0.6,19.6,0.6,39.2,0,58.8
			c-3.3,9.8-9.9,15.9-20.1,18.2c-7.2,0.3-14.3,0.6-21.5,0.9c1.5,7.7,1,15.3-1.4,22.9c-6.2,8.7-14.1,10.7-23.8,6.1
			c-8.4-9.6-16.8-19.3-25.2-28.9c-6.2-0.6-12.4-0.6-18.7,0c2.4,5.2,4.1,10.6,5.1,16.3c0.5,11.8,0.6,23.6,0.5,35.4c-74,0-148,0-222,0
			c-6.5-33,3.2-59.9,28.9-80.7c4.5-2.7,9.2-5.2,14-7.5c15.2-4,30.4-7.9,45.7-11.7c1.1-3.4,1.2-6.8,0.5-10.3
			c-14.7-8.3-23.4-20.7-26.1-37.3c-18.5-17.2-24.7-38.1-18.7-62.5c5.4-11.6,14.3-19.3,26.6-22.9c16.5-18.3,37-25.1,61.6-20.5
			c9.3,1.8,17.5,5.7,24.7,11.7c-7.3-43.2,10.5-61.5,53.6-55C298.4,102.2,306.2,91.9,320.5,86.7z M323.3,97.9
			c19.6-1.3,28.1,7.7,25.6,27c-6.7,13.2-16.8,16.8-30.3,10.7c-10.2-8.2-12.2-18-6.1-29.4C315.5,102.6,319,99.8,323.3,97.9z
			 M266.4,129.6c10.9-0.2,21.8,0,32.6,0.5c2.3,4.8,5.4,9,9.3,12.6c-24.3,12.8-35.2,33-32.6,60.6c35.8,0,71.5,0,107.3,0
			c2.6-27.6-8.3-47.6-32.6-60.2c3.8-3.8,6.9-8.2,9.3-13.1c10.9-0.6,21.8-0.6,32.6,0c4,1.1,6.9,3.4,8.9,7c1.1,11.3,1.5,22.6,1.4,34
			c-0.2,10.4-0.3,20.8-0.5,31.2c-2,4.5-5.3,7.8-9.8,9.8c-16.8,0.2-33.6,0.6-50.4,1.4c-8.1,9.5-16,19.1-23.8,28.9
			c-4.5,3.2-7.6,2.2-9.3-2.8c-0.5-9-0.6-18-0.5-27c-14,0.3-28,0-42-0.9c-1.5-9.1-4.8-17.5-9.8-25.2c-0.6-15.5-0.6-31.1,0-46.6
			C258.8,135.3,262,131.9,266.4,129.6z M326.1,150.1c20,0,34.2,9,42.4,27c1.7,4.8,2.5,9.8,2.3,14.9c-27.7,0-55.3,0-83,0
			C289.9,168.3,302.6,154.3,326.1,150.1z M197.3,171.6c33.5-1.9,52.8,13.6,57.8,46.6c-0.4,11.7-4,22.3-10.7,31.7
			c-2.9-11.5-10.3-18.5-21.9-21c-11.8-0.3-23.6-0.6-35.4-0.9c-5.7-5.4-12.3-8.6-20.1-9.8c-9.2,0.5-15.1,5.2-17.7,14
			c-0.3,5.3-0.6,10.6-0.9,15.9c-6.4-10.3-9.2-21.5-8.4-33.6c2.7-13,10.6-20.6,23.8-22.9C172.3,180.4,183.5,173.7,197.3,171.6z
			 M165.6,229.4c6.8,2.6,13,6.1,18.7,10.7c12.7,0.3,25.5,0.6,38.2,0.9c7.9,3.1,11.7,9,11.2,17.7c-0.7,20.9-11.3,33.7-31.7,38.2
			c-21,1.1-34.5-8.4-40.6-28.4c-0.6-11.8-0.6-23.6,0-35.4C162.7,231.7,164.1,230.4,165.6,229.4z M280.4,277
			c36.1-0.2,72.1,0,108.2,0.5c6.8,0.8,11.3,4.4,13.5,10.7c0.6,17.4,0.6,34.8,0,52.2c-2.3,5.7-6.5,9-12.6,9.8
			c-9.6,0.5-19.3,0.6-28.9,0.5c0.2,9.6,0,19.3-0.5,28.9c-2.5,3.1-5.3,3.4-8.4,0.9c-7.9-10.1-16.1-19.9-24.7-29.4
			c-10.6-0.2-21.2-0.6-31.7-1.4c-7.4-9.9-16.7-17.3-28-22.4c-1.3-13.7-1.2-27.4,0.5-41C270.6,281.2,274.8,278.1,280.4,277z
			 M187.1,307.7c6.7,1.2,13.4,1.2,20.1,0c0.6,3.1,0.6,6.2,0,9.3c-3.1,4.5-6.3,8.8-9.8,13.1c-3.3-4-6.5-8-9.8-12.1
			C187.1,314.6,186.9,311.2,187.1,307.7z M177.8,325.5c4.5,4.6,8.5,9.5,12.1,14.9c-3.7,5.1-7.5,10.1-11.7,14.9
			c-3.1-8.9-6.4-17.8-9.8-26.6C171.7,327.8,174.8,326.7,177.8,325.5z M215.1,325.5c3.7,1,7.5,2.1,11.2,3.3
			c-3.6,8.9-7.2,17.7-10.7,26.6c-3.8-4.8-7.3-9.8-10.7-14.9C208.3,335.4,211.7,330.4,215.1,325.5z M154.4,331.1c0.9,0,1.9,0,2.8,0
			c8.3,23.9,17,47.7,26.1,71.4c-14.6,0.5-29.2,0.6-43.8,0.5c0-10.6,0-21.1,0-31.7c-4,0-8.1,0-12.1,0c-0.3,10.5,0,20.9,0.9,31.2
			c-10.3,0.5-20.5,0.6-30.8,0.5c-3.5-30.4,8.3-52.4,35.4-65.8C140.2,335,147.4,333,154.4,331.1z M237.5,331.1
			c41.7,5.9,61.6,29.8,59.7,71.8c-10.3,0-20.5,0-30.8,0c0-10.6,0-21.1,0-31.7c-3.7,0-7.5,0-11.2,0c0,10.6,0,21.1,0,31.7
			c-14.6,0.3-29.2,0-43.8-0.9C219.9,378.2,228.6,354.6,237.5,331.1z M196.4,350.6c5.3,5.7,10.2,11.7,14.9,18.2
			c-2.8,6.9-5.5,13.9-7.9,21c-0.5-2.5-0.6-5-0.5-7.5c-3.7,0-7.5,0-11.2,0c0.2,2.8,0,5.6-0.5,8.4c-2.6-7.3-5.3-14.6-7.9-21.9
			C187.5,362.6,191.9,356.6,196.4,350.6z M192.7,393.6c3.1-0.2,6.2,0,9.3,0.5C198.4,406,195.3,405.8,192.7,393.6z"/>
	</g>
	<g>
		<path class="st1" d="M275.7,287.2c39.2,0,78.3,0,117.5,0c0,3.7,0,7.5,0,11.2c-39.2,0-78.3,0-117.5,0
			C275.7,294.7,275.7,291,275.7,287.2z"/>
	</g>
	<g>
		<path class="st2" d="M275.7,307.7c39.2,0,78.3,0,117.5,0c0,4,0,8.1,0,12.1c-39.2,0-78.3,0-117.5,0
			C275.7,315.8,275.7,311.8,275.7,307.7z"/>
	</g>
	<g>
		<path class="st3" d="M297.1,329.2c25.2,0,50.4,0,75.5,0c0.3,4,0,7.9-0.9,11.7c-24.9,0.5-49.7,0.6-74.6,0.5
			C297.1,337.3,297.1,333.2,297.1,329.2z"/>
	</g>
	<g>
		<path class="st4" d="M382,329.2c3.7,0,7.5,0,11.2,0c0,4,0,8.1,0,12.1c-3.7,0-7.5,0-11.2,0C382,337.3,382,333.2,382,329.2z"/>
	</g>
	<g>
		<path class="st5" d="M191.7,360.9c3.7,0,7.5,0,11.2,0c0,4,0,8.1,0,12.1c-3.7,0-7.5,0-11.2,0C191.7,369,191.7,365,191.7,360.9z"/>
	</g>
</g>
</svg>
