<?xml version="1.0" encoding="UTF-8"?>
<!DOCTYPE svg PUBLIC "-//W3C//DTD SVG 1.1//EN" "http://www.w3.org/Graphics/SVG/1.1/DTD/svg11.dtd">
<svg xmlns="http://www.w3.org/2000/svg" version="1.1" width="500px" height="500px" style="shape-rendering:geometricPrecision; text-rendering:geometricPrecision; image-rendering:optimizeQuality; fill-rule:evenodd; clip-rule:evenodd" xmlns:xlink="http://www.w3.org/1999/xlink">
<g><path style="opacity:0.897" fill="#fe6c00" d="M 174.5,73.5 C 177.893,73.0617 180.893,73.8951 183.5,76C 188.321,80.6549 192.988,85.4882 197.5,90.5C 198.929,91.935 200.595,92.935 202.5,93.5C 218.233,87.7567 233.9,81.9234 249.5,76C 261.491,72.7099 273.491,72.7099 285.5,76C 307.131,83.1567 328.797,90.1567 350.5,97C 356.491,97.4995 362.491,97.6662 368.5,97.5C 368.294,93.413 369.627,89.913 372.5,87C 389.5,86.3333 406.5,86.3333 423.5,87C 424.416,87.3742 425.25,87.8742 426,88.5C 427.653,124.082 427.986,159.748 427,195.5C 425.681,197.487 423.848,198.654 421.5,199C 406.167,199.667 390.833,199.667 375.5,199C 369.914,197.218 367.914,193.552 369.5,188C 364.167,187.333 358.833,187.333 353.5,188C 343.203,199.65 330.203,206.317 314.5,208C 316,209.5 317.5,211 319,212.5C 319.667,214.5 319.667,216.5 319,218.5C 298.554,239.289 278.054,259.956 257.5,280.5C 254.441,284.349 250.774,285.183 246.5,283C 200.667,237.167 154.833,191.333 109,145.5C 108.333,143.5 108.333,141.5 109,139.5C 131.171,117.497 153.004,95.4972 174.5,73.5 Z M 262.5,86.5 C 269.287,86.3534 275.954,87.1867 282.5,89C 303.121,95.8199 323.788,102.32 344.5,108.5C 344.667,131.836 344.5,155.169 344,178.5C 332.05,191.927 317.217,196.761 299.5,193C 277.867,184.009 256.201,175.009 234.5,166C 226.587,157.634 226.587,149.301 234.5,141C 237.639,139.272 240.972,138.106 244.5,137.5C 263.042,144.103 281.376,151.27 299.5,159C 306.156,159.342 308.989,156.175 308,149.5C 307.167,148.667 306.333,147.833 305.5,147C 285.822,138.108 265.656,130.608 245,124.5C 241.166,124.998 237.499,125.998 234,127.5C 226.554,120.054 219.054,112.554 211.5,105C 228.184,97.6441 245.184,91.4774 262.5,86.5 Z M 176.5,89.5 C 177.239,89.369 177.906,89.5357 178.5,90C 181.698,93.1121 184.698,96.4454 187.5,100C 180.528,103.257 173.528,103.257 166.5,100C 170.037,96.6309 173.371,93.1309 176.5,89.5 Z M 382.5,99.5 C 393.172,99.3335 403.839,99.5002 414.5,100C 413.167,128.333 413.167,156.667 414.5,185C 403.839,185.5 393.172,185.667 382.5,185.5C 382.5,156.833 382.5,128.167 382.5,99.5 Z M 156.5,109.5 C 170.527,117.291 184.527,117.458 198.5,110C 206.333,117.833 214.167,125.667 222,133.5C 222.667,134.5 222.667,135.5 222,136.5C 217.458,141.629 215.625,147.629 216.5,154.5C 193.465,156.735 185.298,169.069 192,191.5C 203.844,206.003 217.178,207.67 232,196.5C 235.641,192.549 237.641,187.883 238,182.5C 252.248,188.376 266.415,194.376 280.5,200.5C 277.147,209.64 276.647,218.974 279,228.5C 280.123,231.249 281.623,233.749 283.5,236C 279.473,240.027 275.473,244.027 271.5,248C 267.324,246.378 262.99,244.711 258.5,243C 252.098,242.182 245.765,242.516 239.5,244C 236.026,245.419 232.693,246.752 229.5,248C 201.333,219.833 173.167,191.667 145,163.5C 145.721,160.377 147.054,157.377 149,154.5C 152,143.11 150.5,132.443 144.5,122.5C 148.522,118.146 152.522,113.813 156.5,109.5 Z M 357.5,110.5 C 361.415,111.267 365.415,111.767 369.5,112C 368.507,132.424 368.173,152.924 368.5,173.5C 364.894,173.211 361.394,173.544 358,174.5C 357.5,153.169 357.333,131.836 357.5,110.5 Z M 134.5,132.5 C 138.303,138.947 138.47,145.614 135,152.5C 131.275,149.362 127.775,146.029 124.5,142.5C 127.84,139.133 131.173,135.8 134.5,132.5 Z M 211.5,167.5 C 221.488,167.651 225.988,172.651 225,182.5C 221.355,190.163 215.521,192.33 207.5,189C 201.272,182.953 200.938,176.62 206.5,170C 208.315,169.243 209.981,168.41 211.5,167.5 Z M 292.5,205.5 C 296.75,208.079 300.417,211.412 303.5,215.5C 300.554,219.112 297.221,222.446 293.5,225.5C 291.112,222.805 290.112,219.638 290.5,216C 290.481,212.348 291.148,208.848 292.5,205.5 Z M 245.5,255.5 C 251.037,255.087 256.37,255.92 261.5,258C 257.833,261.5 254.167,265 250.5,268.5C 246.682,265.182 243.015,261.682 239.5,258C 241.723,257.434 243.723,256.6 245.5,255.5 Z"/></g>
<g><path style="opacity:0.899" fill="#fe6c00" d="M 178.5,292.5 C 187.994,291.895 197.328,292.729 206.5,295C 229.055,303.454 251.055,312.954 272.5,323.5C 274.008,325.507 275.842,327.174 278,328.5C 278.689,331.898 280.355,334.565 283,336.5C 300.032,330.6 317.199,325.1 334.5,320C 357.849,319.348 370.516,330.681 372.5,354C 372.163,357.523 371.663,361.023 371,364.5C 368.037,373.131 362.537,379.631 354.5,384C 322.422,396.137 290.422,408.47 258.5,421C 245.233,426.496 231.566,427.829 217.5,425C 194.812,417.659 172.145,410.326 149.5,403C 142.919,402.813 136.419,402.313 130,401.5C 129.667,404.5 129.333,407.5 129,410.5C 128.097,411.701 126.931,412.535 125.5,413C 109.167,413.667 92.8333,413.667 76.5,413C 75.0692,412.535 73.9025,411.701 73,410.5C 72.3333,374.833 72.3333,339.167 73,303.5C 73.7504,302.874 74.5838,302.374 75.5,302C 92.8333,301.333 110.167,301.333 127.5,302C 129.929,305.041 130.929,308.541 130.5,312.5C 135.511,312.666 140.511,312.499 145.5,312C 154.678,302.302 165.678,295.802 178.5,292.5 Z M 180.5,305.5 C 190.556,304.565 200.222,306.065 209.5,310C 227.022,317.592 244.689,324.925 262.5,332C 269.982,338.575 271.482,346.408 267,355.5C 260.396,362.015 252.896,363.181 244.5,359C 229.033,352.126 213.367,345.96 197.5,340.5C 193.129,340.368 190.795,342.535 190.5,347C 191.09,350.553 193.09,352.886 196.5,354C 212.54,360.358 228.54,366.691 244.5,373C 257.727,376.922 268.894,373.756 278,363.5C 280.694,359.121 282.527,354.454 283.5,349.5C 299.572,344.635 315.572,339.468 331.5,334C 347.792,330.3 357.459,336.634 360.5,353C 359.715,357.737 358.215,362.237 356,366.5C 352.707,369.787 348.873,372.287 344.5,374C 311.823,386.34 279.157,398.673 246.5,411C 238.591,413.768 230.591,414.102 222.5,412C 199.904,404.531 177.237,397.365 154.5,390.5C 154.333,367.164 154.5,343.831 155,320.5C 161.941,312.782 170.441,307.782 180.5,305.5 Z M 85.5,314.5 C 96.1667,314.5 106.833,314.5 117.5,314.5C 117.5,343.167 117.5,371.833 117.5,400.5C 106.833,400.5 96.1667,400.5 85.5,400.5C 85.5,371.833 85.5,343.167 85.5,314.5 Z M 130.5,325.5 C 134.167,325.5 137.833,325.5 141.5,325.5C 141.5,346.5 141.5,367.5 141.5,388.5C 137.833,388.5 134.167,388.5 130.5,388.5C 130.5,367.5 130.5,346.5 130.5,325.5 Z"/></g>
</svg>
