<?xml version="1.0" encoding="utf-8"?>
<!-- Generator: Adobe Illustrator 27.4.0, SVG Export Plug-In . SVG Version: 6.00 Build 0)  -->
<svg version="1.1" id="Layer_1" xmlns="http://www.w3.org/2000/svg" xmlns:xlink="http://www.w3.org/1999/xlink" x="0px" y="0px"
	 width="500px" height="500px" viewBox="0 0 500 500" style="enable-background:new 0 0 500 500;" xml:space="preserve">
<style type="text/css">
	.st0{opacity:0.844;fill-rule:evenodd;clip-rule:evenodd;fill:#F96D00;enable-background:new    ;}
	.st1{opacity:0.838;fill-rule:evenodd;clip-rule:evenodd;fill:#F96D00;enable-background:new    ;}
	.st2{opacity:0.837;fill-rule:evenodd;clip-rule:evenodd;fill:#F96D00;enable-background:new    ;}
	.st3{opacity:0.898;fill-rule:evenodd;clip-rule:evenodd;fill:#F96D00;enable-background:new    ;}
	.st4{opacity:0.896;fill-rule:evenodd;clip-rule:evenodd;fill:#F96D00;enable-background:new    ;}
	.st5{opacity:0.899;fill-rule:evenodd;clip-rule:evenodd;fill:#F96D00;enable-background:new    ;}
</style>
<g>
	<path class="st0" d="M249.5,78.5c2.7,0,5.3,0,8,0c-0.2,1.6,0.3,2.9,1.5,4c0.7,18.7,0.7,37.3,0,56c-2,5.2-5.5,6.4-10.5,3.5
		c-0.7-1.1-1.2-2.2-1.5-3.5c-0.7-18.7-0.7-37.3,0-56C247.5,80.9,248.3,79.5,249.5,78.5z"/>
</g>
<g>
	<path class="st1" d="M210.5,105.5c3.2,0.3,5.3,2,6.5,5c0.7,9.3,0.7,18.7,0,28c-2.5,5.3-6.2,6.3-11,3c-1.6-10.3-1.9-20.6-1-31
		C206.1,107.9,207.9,106.2,210.5,105.5z"/>
</g>
<g>
	<path class="st2" d="M294.5,105.5c3.3,0.2,5.5,1.9,6.5,5c0.7,9.3,0.7,18.7,0,28c-2.2,5.4-5.9,6.4-11,3c-1.6-10.3-1.9-20.6-1-31
		C290.1,107.9,291.9,106.2,294.5,105.5z"/>
</g>
<g>
	<path class="st3" d="M243.5,152.5c37.6-2,65.4,13.4,83.5,46c14.9,37.5,8.1,70.4-20.5,98.5c-26.2,20.4-54.8,24.7-86,13
		c-38.8-20.1-54.7-52-47.5-95.5C184,179.5,207.5,158.8,243.5,152.5z M241.5,165.5c30.4-2.9,54.2,8.1,71.5,33
		c16.4,33.2,11.6,62.9-14.5,89c-25.1,18.4-51.8,20.9-80,7.5c-34.8-23.9-43.6-55.4-26.5-94.5C203.6,181.8,220.1,170.1,241.5,165.5z"
		/>
</g>
<g>
	<path class="st4" d="M250.5,180.5c2.1,0.2,4.1,0.7,6,1.5c1.2,3,2,6.2,2.5,9.5c10.9,3.7,17.1,11.4,18.5,23c-0.4,5.9-3.4,8-9,6.5
		c-1.2-0.5-2-1.3-2.5-2.5c-1.9-12.6-8.7-16.8-20.5-12.5c-7,8.2-6,15.2,3,21c19.4,0.4,28.9,10.3,28.5,29.5
		c-1.9,10.1-7.7,16.8-17.5,20c-0.8,3-1.7,6-2.5,9c-3.1,2.6-6.3,2.6-9.5,0c-1.4-3.2-2.4-6.5-3-10c-11.6-4.8-16.7-13.5-15.5-26
		c3.4-3.5,7.1-3.9,11-1c0.1,11.2,5.6,16.3,16.5,15.5c8-3.4,10.5-9.3,7.5-17.5c-1.9-2.6-4.4-4.4-7.5-5.5
		c-19.4-1.1-28.6-11.2-27.5-30.5c2.1-8.6,7.3-14.6,15.5-18C244.4,187.3,246.4,183.3,250.5,180.5z"/>
</g>
<g>
	<path class="st5" d="M105.5,306.5c15.7,0.6,31.3,1.1,47,1.5c1.3,0.3,2.4,0.8,3.5,1.5c1.1,4.2,1.8,8.6,2,13
		c17.6-8.5,35.7-10,54.5-4.5c8.9,3.9,17.9,7.6,27,11c18.7,0.9,37.3,1.9,56,3c10.1,2.6,17.8,8.5,23,17.5c13.7-6.4,27.4-12.9,41-19.5
		c15.2-7.2,28.4-4.3,39.5,8.5c2.3,4.2,1.8,8-1.5,11.5c-33,20.5-65.7,41.5-98,63c-14.9,7.1-30.6,9.4-47,7c-25.6-7.1-51.3-14-77-20.5
		c-7,0.8-13.3,3.3-19,7.5c-0.6,3.3-1.6,6.4-3,9.5c-1.8,0.8-3.6,1.4-5.5,2c-15.8-0.6-31.7-1.4-47.5-2.5c-0.5-0.5-1-1-1.5-1.5
		c-0.3-34.7,0.4-69.3,2-104C102.2,308.7,103.7,307.4,105.5,306.5z M113.5,319.5c10.3,0,20.7,0.4,31,1c-0.1,28.3-0.8,56.7-2,85
		c-10.7-0.3-21.3-0.8-32-1.5C112,375.9,113,347.7,113.5,319.5z M182.5,327.5c7.7-0.3,15.4,0.2,23,1.5c8.9,3.1,17.5,6.8,26,11
		c3.3,0.7,6.7,1.3,10,2c16.7,0.5,33.3,1.1,50,2c8.7,2.5,14.7,8,18,16.5c-21,0.4-42,0.6-63,0.5c-4.2,4.1-3.9,7.8,1,11
		c24,1.4,48,2.1,72,2c0.8-0.8,1.7-1.7,2.5-2.5c0.3-3.3,0.7-6.7,1-10c15.9-8.2,32-15.7,48.5-22.5c5-0.9,9.7,0.1,14,3
		c-30.7,20-61.3,40-92,60c-11.7,5.6-24.1,7.6-37,6c-26.8-7.3-53.7-14.4-80.5-21.5c-6.8,0.6-13.1,2.6-19,6c-0.7-18.3-0.7-36.7,0-55
		C165,332.7,173.5,329.3,182.5,327.5z"/>
</g>
</svg>
