<?xml version="1.0" encoding="utf-8"?>
<!-- Generator: Adobe Illustrator 27.4.0, SVG Export Plug-In . SVG Version: 6.00 Build 0)  -->
<svg version="1.1" id="Layer_1" xmlns="http://www.w3.org/2000/svg" xmlns:xlink="http://www.w3.org/1999/xlink" x="0px" y="0px"
	 width="500px" height="500px" viewBox="0 0 500 500" style="enable-background:new 0 0 500 500;" xml:space="preserve">
<style type="text/css">
	.st0{opacity:0.889;fill-rule:evenodd;clip-rule:evenodd;fill:#F96D00;enable-background:new    ;}
	.st1{opacity:0.868;fill-rule:evenodd;clip-rule:evenodd;fill:#F96D00;enable-background:new    ;}
	.st2{opacity:0.833;fill-rule:evenodd;clip-rule:evenodd;fill:#F96D00;enable-background:new    ;}
	.st3{opacity:0.899;fill-rule:evenodd;clip-rule:evenodd;fill:#F96D00;enable-background:new    ;}
	.st4{opacity:0.893;fill-rule:evenodd;clip-rule:evenodd;fill:#F96D00;enable-background:new    ;}
	.st5{opacity:0.901;fill-rule:evenodd;clip-rule:evenodd;fill:#F96D00;enable-background:new    ;}
</style>
<g>
	<path class="st0" d="M249.5,74.5c3.8-0.6,7,0.4,9.5,3c0.7,20.3,0.7,40.7,0,61c-4.9,4.3-8.9,3.6-12-2c-0.7-19.3-0.7-38.7,0-58
		C247.7,77,248.5,75.7,249.5,74.5z"/>
</g>
<g>
	<path class="st1" d="M207.5,102.5c4.2-0.6,7.1,1.1,8.5,5c0.7,9.7,0.7,19.3,0,29c-3.1,5.6-7.1,6.3-12,2c-0.7-11-0.7-22,0-33
		C205.1,104.4,206.3,103.4,207.5,102.5z"/>
</g>
<g>
	<path class="st2" d="M294.5,102.5c4-0.4,6.5,1.2,7.5,5c0.7,9.7,0.7,19.3,0,29c-1.7,4.9-4.9,6.1-9.5,3.5c-1.2-0.9-2-2.1-2.5-3.5
		c-0.7-9.7-0.7-19.3,0-29C291,105.3,292.5,103.6,294.5,102.5z"/>
</g>
<g>
	<path class="st3" d="M243.5,150.5c38.5-2.2,67,13.5,85.5,47c16.2,38.4,9.4,71.9-20.5,100.5c-26.9,21.6-56.5,26.3-89,14
		c-35.2-18-52.1-46.8-50.5-86.5c6.5-36.5,27.4-60.7,62.5-72.5C235.7,152.5,239.7,151.6,243.5,150.5z M243.5,163.5
		c43.5-1.3,70.4,19.1,80.5,61c2.4,29.7-8.4,53.2-32.5,70.5c-34.2,17.9-65.1,13.4-92.5-13.5c-23.3-31.3-23.3-62.6,0-94
		C211.4,174.9,226.2,166.9,243.5,163.5z"/>
</g>
<g>
	<path class="st4" d="M250.5,179.5c4-0.3,6.8,1.4,8.5,5c0.5,2.3,0.7,4.6,0.5,7c9.7,2.6,15.9,9,18.5,19c1.3,7.7-1.8,11.2-9.5,10.5
		c-1.6-4.1-3.1-8.2-4.5-12.5c-8.2-7.9-15.9-7.2-23,2c-1.9,6.6,0,11.7,5.5,15.5c16.2-0.2,26.7,7.3,31.5,22.5c1,13.8-4.8,23.5-17.5,29
		c-0.5,3.7-1.8,7-4,10c-4.9,2.2-8.4,0.8-10.5-4c-0.5-2.3-0.7-4.6-0.5-7c-10.9-3.2-16.6-10.5-17-22c-0.1-6.6,2.9-8.9,9-7
		c2.5,2.8,3.7,6.1,3.5,10c6.9,9.7,14.6,10.3,23,2c3.5-7,2-12.8-4.5-17.5c-26.8-2.1-35.9-15.9-27.5-41.5c3.6-3.9,7.8-6.9,12.5-9
		C244.4,186.3,246.4,182.3,250.5,179.5z"/>
</g>
<g>
	<path class="st5" d="M101.5,308.5c16,0.7,32,1.2,48,1.5c2.7,0.4,4.6,1.9,5.5,4.5c0.2,3.4,0.7,6.7,1.5,10c26.5-11.3,52.2-9.5,77,5.5
		c2.6,0.9,5.3,1.6,8,2c17.3,0.8,34.7,1.5,52,2c11.6,2.6,20.8,8.8,27.5,18.5c15.7-7.9,31.5-15.4,47.5-22.5
		c14.1-3.7,25.6,0.1,34.5,11.5c2.3,4.2,1.8,8-1.5,11.5c-33.8,21.4-67.5,43.1-101,65c-15.2,7.1-31.2,9.5-48,7
		c-26.3-7.3-52.7-14.4-79-21.5c-7,2-13.6,4.8-20,8.5c-0.8,2.4-1.3,4.9-1.5,7.5c-0.8,0.8-1.7,1.7-2.5,2.5c-17.4,0.7-34.7,0.4-52-1
		c-0.8-0.8-1.7-1.7-2.5-2.5c-0.2-35.3,0.5-70.7,2-106C98.2,310.7,99.7,309.4,101.5,308.5z M109.5,321.5c11,0.6,22,0.9,33,1
		c-1.2,29.3-2.1,58.7-2.5,88c-10.8-1-21.6-1.3-32.5-1C108.1,380.2,108.8,350.8,109.5,321.5z M185.5,329.5c6.7,0.2,13.4,1,20,2.5
		c8.9,3.1,17.6,6.8,26,11c3.3,0.7,6.7,1.3,10,2c17,0.4,34,1.1,51,2c9.6,2.6,15.9,8.6,19,18c-21.3-0.5-42.7-0.9-64-1
		c-5.3,4-5.3,8,0,12c24.3,1.1,48.7,1.8,73,2c1.4-0.5,2.6-1.3,3.5-2.5c0.2-3.7,0.7-7.4,1.5-11c15.8-7.8,31.8-15.3,48-22.5
		c5.5-1.2,10.5-0.2,15,3c-31.2,20.1-62.2,40.4-93,61c-13.3,6.8-27.3,8.8-42,6c-26.7-7.9-53.5-15-80.5-21.5c-6.9,0.7-13.2,3.1-19,7
		c-0.2-19.3,0.3-38.7,1.5-58C164.9,334,174.9,330.7,185.5,329.5z"/>
</g>
</svg>
