<?xml version="1.0" encoding="utf-8"?>
<!-- Generator: Adobe Illustrator 27.4.0, SVG Export Plug-In . SVG Version: 6.00 Build 0)  -->
<svg version="1.1" id="Layer_1" xmlns="http://www.w3.org/2000/svg" xmlns:xlink="http://www.w3.org/1999/xlink" x="0px" y="0px"
	 width="500px" height="500px" viewBox="0 0 500 500" style="enable-background:new 0 0 500 500;" xml:space="preserve">
<style type="text/css">
	.st0{opacity:0.916;fill-rule:evenodd;clip-rule:evenodd;fill:#FFFFFF;enable-background:new    ;}
	.st1{opacity:0.836;fill-rule:evenodd;clip-rule:evenodd;fill:#FFFFFF;enable-background:new    ;}
	.st2{opacity:0.896;fill-rule:evenodd;clip-rule:evenodd;fill:#FFFFFF;enable-background:new    ;}
</style>
<g>
	<path class="st0" d="M237.5,79.5c17.6-2.3,34,1.2,49,10.5c8,0.3,16,0.7,24,1c12.1,2.8,20.6,10,25.5,21.5c1.3,12.9,1.9,25.9,2,39
		c9.2,13.9,6.4,24.8-8.5,32.5c-3,0.3-6,0.7-9,1c-1.4,20.2-10.1,36.8-26,50c-4.3,2.7-8.3,5.7-12,9c0.4,0.9,1.1,1.6,2,2
		c19.5,5.4,38.2,12.7,56,22c34.8,22.5,55.7,54.4,62.5,95.5c0.7,18,0.7,36,0,54c-0.8,0.8-1.7,1.7-2.5,2.5c-100.7,0.7-201.3,0.7-302,0
		c-0.8-0.8-1.7-1.7-2.5-2.5c-0.7-18-0.7-36,0-54c8.4-49.1,35.3-83.9,80.5-104.5c12.9-4.3,25.8-8.8,38.5-13.5c0.8-1.4,0.6-2.8-0.5-4
		c-21.8-12.8-33.8-31.8-36-57c-15.9-0.1-23.4-8.1-22.5-24c0.9-3.5,2.6-6.5,5-9c0.3-11.7,0.7-23.3,1-35c3.9-13.6,12.8-22.1,26.5-25.5
		c8-0.3,16-0.7,24-1C220.5,85.4,228.8,81.9,237.5,79.5z M243.5,91.5c25.7-1.1,45.2,9.3,58.5,31c3,6.2,5.1,12.7,6.5,19.5
		c-0.6,1.6-1.6,2.9-3,4c-2.8,1.6-5.5,3.4-8,5.5c-9.2-12.3-20.6-14.8-34-7.5c-4.1,3.3-6.7,7.5-8,12.5c-4,0-8,0-12,0
		c-4.8-14-14.5-19.1-29-15.5c-5.4,2.2-9.7,5.7-13,10.5c-2.5-2.1-5.2-3.9-8-5.5c-1.6-1.1-2.6-2.6-3-4.5
		C197.3,113.1,214.9,96.4,243.5,91.5z M190.5,102.5c2-0.2,4,0,6,0.5c-11.1,12-17.1,26-18,42c-1.6,0.5-3.3,0.7-5,0.5
		c-0.4-10.1,0.1-20.1,1.5-30C178.3,108.7,183.4,104.4,190.5,102.5z M302.5,103.5c11.5-1.4,19,3.6,22.5,15c0.5,9,0.7,18,0.5,27
		c-1.7,0.2-3.4,0-5-0.5C319.7,129.1,313.7,115.2,302.5,103.5z M220.5,151.5c10.2,1,13.7,6.4,10.5,16c-6,6.7-12,6.7-18,0
		C210.4,159.7,212.9,154.3,220.5,151.5z M275.5,151.5c9.8,1.2,13.3,6.6,10.5,16c-3.9,5-8.7,6.2-14.5,3.5
		C264.1,162.6,265.4,156.1,275.5,151.5z M172.5,157.5c1.7,0,3.3,0,5,0c0,5,0,10,0,15c-8.5,0-11.3-4-8.5-12
		C170.1,159.4,171.3,158.4,172.5,157.5z M189.5,157.5c3.4,2.8,6.9,5.4,10.5,8c3.8,14.8,13.3,21,28.5,18.5c7.1-2.6,12.1-7.5,15-14.5
		c4-1.3,8-1.3,12,0c7.5,14.9,18.8,18.7,34,11.5c5.1-4,8.3-9.2,9.5-15.5c3.5-2.4,6.8-5.1,10-8c1.6,14.6,0.2,29-4,43
		c-15.7,31.9-40.8,43.4-75.5,34.5c-20.7-8-33.5-22.9-38.5-44.5C189.7,179.5,189.2,168.5,189.5,157.5z M321.5,157.5
		c5.7-0.6,9.1,1.9,10,7.5c-0.9,5.6-4.3,8.1-10,7.5C321.5,167.5,321.5,162.5,321.5,157.5z M230.5,248.5c12.7,2.7,25.3,2.7,38,0
		c-6,5.5-12.5,10.5-19.5,15C242.7,258.6,236.5,253.6,230.5,248.5z M220.5,256.5c7.2,5.4,14.2,11.1,21,17c-4.6,8.5-9.5,16.8-14.5,25
		c-7.1-12.1-14.6-23.9-22.5-35.5C209.9,260.7,215.2,258.6,220.5,256.5z M277.5,256.5c5.8,1.9,11.5,4,17,6.5
		c-7.9,11.6-15.4,23.4-22.5,35.5c-5-8.2-9.9-16.5-14.5-25C264.2,267.8,270.9,262.1,277.5,256.5z M190.5,266.5c1.5,0,2.7,0.7,3.5,2
		c9.7,15.3,19.3,30.7,29,46c3.6,2.8,6.9,2.4,10-1c5.5-9.7,11-19.3,16.5-29c5.5,9.7,11,19.3,16.5,29c2.8,3.2,5.9,3.7,9.5,1.5
		c10.1-16.6,20.8-32.8,32-48.5c49.1,17.6,76.9,52.2,83.5,104c0.5,12.7,0.7,25.3,0.5,38c-14.3,0-28.7,0-43,0c0-27.3,0-54.7,0-82
		c-4,0-8,0-12,0c0,27.3,0,54.7,0,82c-58,0-116,0-174,0c0-27.3,0-54.7,0-82c-4,0-8,0-12,0c0,27.3,0,54.7,0,82c-14.3,0-28.7,0-43,0
		c-5.2-40.1,4.6-75.7,29.5-107C151.8,285.2,169.7,273.5,190.5,266.5z"/>
</g>
<g>
	<path class="st1" d="M237.5,101.5c8,0,16,0,24,0c0,4,0,8,0,12c-8,0-16,0-24,0C237.5,109.5,237.5,105.5,237.5,101.5z"/>
</g>
<g>
	<path class="st2" d="M221.5,117.5c18.7,0,37.3,0,56,0c0,4,0,8,0,12c-18.7,0-37.3,0-56,0C221.5,125.5,221.5,121.5,221.5,117.5z"/>
</g>
</svg>
