<?xml version="1.0" encoding="utf-8"?>
<!-- Generator: Adobe Illustrator 27.4.0, SVG Export Plug-In . SVG Version: 6.00 Build 0)  -->
<svg version="1.1" id="Layer_1" xmlns="http://www.w3.org/2000/svg" xmlns:xlink="http://www.w3.org/1999/xlink" x="0px" y="0px"
	 width="500px" height="500px" viewBox="0 0 500 500" style="enable-background:new 0 0 500 500;" xml:space="preserve">
<style type="text/css">
	.st0{opacity:0.95;fill-rule:evenodd;clip-rule:evenodd;fill:#FFFFFF;enable-background:new    ;}
	.st1{opacity:0.944;fill-rule:evenodd;clip-rule:evenodd;fill:#FFFFFF;enable-background:new    ;}
	.st2{opacity:0.928;fill-rule:evenodd;clip-rule:evenodd;fill:#FFFFFF;enable-background:new    ;}
</style>
<g>
	<path class="st0" d="M246.5,88.5c7-0.2,12.2,2.8,15.5,9c53.7,98.5,107.7,196.8,162,295c2.4,8.4-0.5,14.3-8.5,17.5
		c-110.7,0.7-221.3,0.7-332,0c-8-3.2-10.9-9.1-8.5-17.5c54.3-98.2,108.3-196.5,162-295C239.4,93.6,242.6,90.6,246.5,88.5z
		 M248.5,128.5c0.9-0.1,1.5,0.2,2,1c46.8,84.8,93.5,169.6,140,254.5c-94,0.7-188,0.7-282,0C155.3,298.9,202,213.7,248.5,128.5z"/>
</g>
<g>
	<path class="st1" d="M245.5,197.5c9.8-1.2,16.3,2.8,19.5,12c0.7,31.7,0.7,63.3,0,95c-5.4,12-13.9,14.9-25.5,8.5
		c-2.5-2.4-4.3-5.3-5.5-8.5c-0.7-31.7-0.7-63.3,0-95C236,203.6,239.9,199.6,245.5,197.5z"/>
</g>
<g>
	<path class="st2" d="M244.5,331.5c12.7-1.5,20.1,4,22,16.5c-2,11.3-8.6,16.6-20,16c-8.2-2.2-12.9-7.5-14-16
		C233.5,340.2,237.5,334.7,244.5,331.5z"/>
</g>
</svg>
