<?xml version="1.0" encoding="utf-8"?>
<!-- Generator: Adobe Illustrator 27.4.0, SVG Export Plug-In . SVG Version: 6.00 Build 0)  -->
<svg version="1.1" id="Layer_1" xmlns="http://www.w3.org/2000/svg" xmlns:xlink="http://www.w3.org/1999/xlink" x="0px" y="0px"
	 width="500px" height="500px" viewBox="0 0 500 500" style="enable-background:new 0 0 500 500;" xml:space="preserve">
<style type="text/css">
	.st0{opacity:0.906;fill-rule:evenodd;clip-rule:evenodd;fill:#86B13E;enable-background:new    ;}
</style>
<g>
	<path class="st0" d="M154.5,93.5c23.8-1.2,46.5,3.3,68,13.5c9.8,4.8,19.3,9.9,28.5,15.5c20.4-12.5,42.2-21.6,65.5-27.5
		c54.3-6,91.1,16.5,110.5,67.5c7.2,27.4,4.7,53.9-7.5,79.5c12.7,0.3,25.3,0.7,38,1c4.3,1.8,5.8,4.9,4.5,9.5c-1.3,2-3.2,3.2-5.5,3.5
		c-14.3,0.3-28.7,0.7-43,1c-17.6,28-38.6,53.3-63,76c-29.7,27.1-61.7,51.1-96,72c-5-0.5-9.6-2.1-14-5
		c-44.6-28.3-84.8-62.1-120.5-101.5c-8.7-10.6-16.8-21.6-24.5-33c-17.7-0.8-35.3-1.3-53-1.5c-1.6-0.7-3.1-1.5-4.5-2.5
		c-0.7-3-0.7-6,0-9c0.9-1.2,2.1-2,3.5-2.5c14.7-0.2,29.3-0.7,44-1.5c-16.4-32.2-18.2-65.2-5.5-99C95.6,118.4,120.4,99.7,154.5,93.5z
		 M153.5,108.5c20.9-1.8,40.9,1.7,60,10.5c13.2,6.1,25.8,12.9,38,20.5c12.2-7.6,24.9-14.4,38-20.5c10.4-4.3,21-7.6,32-10
		c45.9-4.1,76.7,15.4,92.5,58.5c5.4,25.8,2.3,50.4-9.5,74c-13,1.2-26,1.3-39,0.5c-5.4-9.2-10.9-18.4-16.5-27.5
		c-3.7-4.9-7.7-5.2-12-1c-4.3,6.3-8.7,12.7-13,19c-7.3-23.3-14.7-46.6-22-70c-3.2-6.4-7.6-7.4-13-3c-13,43-25.8,86-38.5,129
		c-13.3-33.3-26.4-66.6-39.5-100c-5.2-7.7-10.2-7.3-15,1c-9.8,20-19.9,39.8-30.5,59.5c-21,0.7-42,0.7-63,0
		c-16.2-27.6-20-56.7-11.5-87.5C102.9,133.1,123.7,115.4,153.5,108.5z M294.5,189.5c6.6,20.5,13.1,41.2,19.5,62
		c2.5,4.4,6,5.5,10.5,3.5c5.8-7.8,11.7-15.7,17.5-23.5c4,6.7,8,13.3,12,20c1.2,2.2,3.1,3.7,5.5,4.5c12,0.2,24,0.7,36,1.5
		c-17.2,26.1-37.5,49.6-61,70.5c-26.1,22.7-53.8,43.2-83,61.5c-42.8-26.5-81.6-58.2-116.5-95c-8.1-9.8-15.9-19.8-23.5-30
		c20.5,0.5,41.1,0,62-1.5c10.2-17.8,19.7-36,28.5-54.5c14.5,35.1,28.5,70.4,42,106c2.2,4.4,5.7,5.9,10.5,4.5
		c2.3-1.6,3.8-3.8,4.5-6.5C270.9,271.5,282.8,230.5,294.5,189.5z"/>
</g>
</svg>
