<?xml version="1.0" encoding="UTF-8"?>
<svg id="Capa_1" data-name="Capa 1" xmlns="http://www.w3.org/2000/svg" viewBox="0 0 82.13 69.04">
  <defs>
    <style>
      .cls-1 {
        fill: #f96d00;
      }
    </style>
  </defs>
  <path class="cls-1" d="m.43,31.35c.66-2.06,2.26-3.1,4.15-3.82,7.09-2.69,14.18-5.38,21.27-8.07,15.71-5.95,31.43-11.9,47.14-17.85,1.3-.49,2.62-.88,4.02-.69,2.85.38,4.77,2.44,4.7,5.36-.04,1.78-.44,3.56-.81,5.31-3.3,16.08-6.63,32.15-9.96,48.22-.25,1.22-.45,2.45-.8,3.64-.76,2.67-2.34,4.56-5.24,4.98-1.89.28-3.53-.41-5.06-1.46-4.97-3.42-9.93-6.84-14.9-10.26-.24-.16-.48-.32-.75-.5-2.08,1.95-4.13,3.86-6.16,5.79-1.16,1.09-2.44,1.95-4.04,2.22-2.9.48-5.39-1.03-6.65-3.98-.91-2.14-1.82-4.28-2.75-6.41-1.63-3.76-3.29-7.5-4.9-11.27-.23-.54-.54-.84-1.08-1.03-4.74-1.72-9.48-3.47-14.22-5.19-1.81-.66-3.29-1.65-3.96-3.56v-1.43Zm5.94.6c.4.16.59.25.79.32,4.19,1.54,8.39,3.05,12.57,4.63.87.33,1.54.29,2.36-.16,10.68-5.76,21.38-11.49,32.07-17.22,1.44-.77,2.88-1.58,4.34-2.31,1.58-.8,3.31.11,3.52,1.81.12.99-.4,1.7-1.1,2.34-7.07,6.47-14.13,12.95-21.19,19.43-1.34,1.23-2.67,2.46-4.05,3.73.23.18.39.31.56.42,8.69,5.99,17.39,11.97,26.08,17.95,2.05,1.41,2.9,1.05,3.4-1.39.76-3.73,1.55-7.45,2.32-11.18,2.95-14.29,5.91-28.58,8.83-42.87.11-.53-.06-1.12-.1-1.68-.56.05-1.16-.02-1.67.17-2.31.82-4.61,1.71-6.9,2.59-17.74,6.72-35.48,13.44-53.22,20.16-2.81,1.06-5.61,2.14-8.6,3.27Zm22.83,20.49h.16c.01-.26.03-.52.03-.77.02-2.12.08-4.23.05-6.35-.01-1.09.34-1.91,1.16-2.64,3.11-2.8,6.17-5.64,9.25-8.47,1.26-1.16,2.52-2.32,3.78-3.47-.03-.04-.06-.08-.08-.12-6.43,3.45-12.86,6.9-19.34,10.38,1.69,3.86,3.34,7.65,5,11.45Zm4.99,6.63c2.06-1.94,4.01-3.77,6-5.64-2.02-1.39-3.94-2.71-6-4.12v9.76Z"/>
</svg>