<?xml version="1.0" encoding="utf-8"?>
<!-- Generator: Adobe Illustrator 27.4.0, SVG Export Plug-In . SVG Version: 6.00 Build 0)  -->
<svg version="1.1" id="Layer_1" xmlns="http://www.w3.org/2000/svg" xmlns:xlink="http://www.w3.org/1999/xlink" x="0px" y="0px"
	 viewBox="0 0 500 500" style="enable-background:new 0 0 500 500;" xml:space="preserve">
<style type="text/css">
	.st0{fill:#FFFFFF;}
</style>
<path class="st0" d="M370.7,199.1c-7.9,1.9-15.9,4.2-23.8,6.1c-0.5-1.4-0.9-3.3-1.4-5.1c-3.7-11.7-8.9-22.9-16.8-32.7
	c-10.3-12.6-22.9-21.5-37.8-26.6c-8.4-3.3-16.8-4.7-25.7-5.6c-4.2-0.5-7.9-0.9-12.6-0.9c-16.8,0-33.6,2.8-49,10.3
	c-14.9,7.5-26.2,19.1-34.1,33.2c-5.6,10.3-9.8,21.9-12.1,33.6c-2.3,11.7-3.3,23.8-3.3,35.5c0,17.3,1.4,34.1,6.1,50.9
	c3.3,13.1,8.4,24.7,16.3,35c9.8,12.6,22.4,21.5,37.4,26.6c10.3,3.3,21.5,5.6,32.2,5.6c9.8,0.5,19.1,0,28-1.4
	c16.8-2.8,32.2-9.8,44.4-22.4c7.9-7.9,13.1-16.8,14.9-27.6c2.3-12.1,0.9-23.3-5.6-33.6c-3.7-6.1-9.3-10.7-14.9-14.5h-0.5
	c-0.5,2.3-0.9,4.7-0.9,7c-1.9,10.3-5.6,20.1-12.1,29c-7.9,10.7-19.1,17.7-32.2,20.5c-11.7,2.3-23.3,2.3-34.6-0.9
	c-8.4-2.8-15.9-6.5-21.9-12.6c-6.5-6.5-10.7-14.5-12.1-24.3c-0.9-9.3,0-18.7,4.2-27.1c4.2-7.9,10.3-14,18.2-18.7
	c7.5-4.2,14.9-7,23.8-7.9c10.3-1.4,21-1.4,31.8-0.9c3.7,0.5,7.9,0.9,11.2,0.9h0.5c-0.5-2.3-0.9-4.7-1.4-6.5c-1.4-5.1-3.3-9.8-7-13.5
	c-4.2-5.1-9.8-7.9-16.3-9.3c-9.3-1.9-18.7-1.9-27.6,1.9c-5.6,2.3-10.3,6.1-14.5,11.2c-0.5,0.5-0.5,0.9-0.9,0.9
	c-6.5-4.7-13.5-9.3-20.1-14c1.4-2.3,3.3-4.2,5.1-6.5c9.3-10.3,21-16.8,35-19.1c11.7-1.9,23.3-0.9,34.6,2.8
	c16.3,5.6,26.6,16.8,32.7,32.2c3.3,7.9,4.7,16.3,5.6,24.3c0,1.9,0.9,3.3,2.8,3.7c8.4,3.7,16.8,8.9,23.3,15.9
	c9.3,9.3,15.4,20.5,18.2,33.2c5.1,24.3-0.9,46.2-16.3,64.9c-13.5,16.3-30.8,27.1-51.4,32.7c-9.8,2.3-19.1,3.7-29.4,4.2
	c-8.4,0.5-16.8,0-25.7-0.9c-16.8-1.9-33.2-6.5-48.1-15.4c-6.5-3.7-12.6-8.4-18.7-14c-14-12.6-22.9-28-29-45.8
	c-3.3-10.3-6.1-21.5-7.9-32.2c-0.9-9.8-1.9-21-1.9-32.2c0.5-19.6,2.8-39.2,8.4-57.9c5.1-15.9,12.6-30.4,23.8-43
	c12.1-14,26.6-23.8,43.9-29.4c11.2-3.7,22.4-5.6,34.1-7c10.3-0.9,20.5-0.9,30.8,0.9c13.5,1.4,26.6,5.1,39.2,10.7
	c19.1,9.3,34.6,22.9,45.8,41.1c6.5,10.7,11.7,22.4,14.5,35C370.2,198.6,370.7,199.1,370.7,199.1L370.7,199.1z M296.9,249
	c-4.2-0.5-8.4-1.4-12.6-1.9c-7.5-0.9-15.4-1.4-23.3-0.9c-7,0-14.5,0.9-21.5,2.8c-6.5,1.9-13.1,5.1-17.7,10.3
	c-7.5,8.4-7.9,21-0.9,29.4c4.2,5.1,9.3,7.9,15.4,9.8c7.9,2.3,16.3,2.8,24.7,1.4c12.1-1.9,21.5-7.9,27.1-19.1
	c8.9-18.2,7.5-27.6,6.5-20.5C296,257,296.5,253.3,296.9,249L296.9,249z"/>
</svg>
