<?xml version="1.0" encoding="utf-8"?>
<!-- Generator: Adobe Illustrator 27.4.0, SVG Export Plug-In . SVG Version: 6.00 Build 0)  -->
<svg version="1.1" id="Capa_1" xmlns="http://www.w3.org/2000/svg" xmlns:xlink="http://www.w3.org/1999/xlink" x="0px" y="0px"
	 viewBox="0 0 195.4 226.5" style="enable-background:new 0 0 195.4 226.5;" xml:space="preserve">
<style type="text/css">
	.st0{fill:#E57428;}
</style>
<path class="st0" d="M154.7,89.2c-3.7,0.9-7.5,2-11.2,2.9c-0.2-0.7-0.4-1.5-0.7-2.4c-1.8-5.5-4.2-10.8-7.9-15.4
	c-4.9-6-10.8-10.1-17.9-12.6c-4-1.5-7.9-2.2-12.1-2.6c-2-0.2-3.7-0.4-6-0.4c-7.9,0-15.9,1.3-23.2,4.9c-7.1,3.5-12.3,9-16.1,15.7
	C57,83.9,55.1,89.4,54,94.9c-1.1,5.5-1.5,11.2-1.5,16.8c0,8.2,0.7,16.1,2.9,24c1.5,6.2,4,11.7,7.7,16.5c4.6,6,10.6,10.1,17.6,12.6
	c4.9,1.5,10.1,2.6,15.2,2.6c4.6,0.2,9,0,13.2-0.7c7.9-1.3,15.2-4.6,20.9-10.6c3.7-3.7,6.2-7.9,7.1-13c1.1-5.7,0.4-11-2.6-15.9
	c-1.8-2.9-4.4-5.1-7.1-6.8h-0.2c-0.2,1.1-0.4,2.2-0.4,3.3c-0.9,4.9-2.6,9.5-5.7,13.7c-3.7,5.1-9,8.4-15.2,9.7
	c-5.5,1.1-11,1.1-16.3-0.4c-4-1.3-7.5-3.1-10.4-6c-3.1-3.1-5.1-6.8-5.7-11.5c-0.4-4.4,0-8.8,2-12.8c2-3.7,4.9-6.6,8.6-8.8
	c3.5-2,7.1-3.3,11.2-3.7c4.9-0.7,9.9-0.7,15-0.4c1.8,0.2,3.7,0.4,5.3,0.4h0.2c-0.2-1.1-0.4-2.2-0.7-3.1c-0.7-2.4-1.5-4.6-3.3-6.4
	c-2-2.4-4.6-3.7-7.7-4.4c-4.4-0.9-8.8-0.9-13,0.9c-2.6,1.1-4.9,2.9-6.8,5.3c-0.2,0.2-0.2,0.4-0.4,0.4c-3.1-2.2-6.4-4.4-9.5-6.6
	c0.7-1.1,1.5-2,2.4-3.1c4.4-4.9,9.9-7.9,16.5-9c5.5-0.9,11-0.4,16.3,1.3c7.7,2.6,12.6,7.9,15.4,15.2c1.5,3.7,2.2,7.7,2.6,11.5
	c0,0.9,0.4,1.5,1.3,1.8c4,1.8,7.9,4.2,11,7.5c4.4,4.4,7.3,9.7,8.6,15.7c2.4,11.5-0.4,21.8-7.7,30.6c-6.4,7.7-14.6,12.8-24.3,15.4
	c-4.6,1.1-9,1.8-13.9,2c-4,0.2-7.9,0-12.1-0.4c-7.9-0.9-15.7-3.1-22.7-7.3c-3.1-1.8-6-4-8.8-6.6c-6.6-6-10.8-13.2-13.7-21.6
	c-1.5-4.9-2.9-10.1-3.7-15.2c-0.4-4.6-0.9-9.9-0.9-15.2c0.2-9.3,1.3-18.5,4-27.3c2.4-7.5,6-14.3,11.2-20.3
	c5.7-6.6,12.6-11.2,20.7-13.9c5.3-1.8,10.6-2.6,16.1-3.3c4.9-0.4,9.7-0.4,14.6,0.4c6.4,0.7,12.6,2.4,18.5,5.1
	c9,4.4,16.3,10.8,21.6,19.4c3.1,5.1,5.5,10.6,6.8,16.5C154.5,89,154.7,89.2,154.7,89.2L154.7,89.2z M119.9,112.8c-2-0.2-4-0.7-6-0.9
	c-3.5-0.4-7.3-0.7-11-0.4c-3.3,0-6.8,0.4-10.1,1.3c-3.1,0.9-6.2,2.4-8.4,4.9c-3.5,4-3.7,9.9-0.4,13.9c2,2.4,4.4,3.7,7.3,4.6
	c3.7,1.1,7.7,1.3,11.7,0.7c5.7-0.9,10.1-3.7,12.8-9c4.2-8.6,3.5-13,3.1-9.7C119.4,116.5,119.7,114.8,119.9,112.8L119.9,112.8z"/>
</svg>
