<?xml version="1.0" encoding="utf-8"?>
<!-- Generator: Adobe Illustrator 27.4.0, SVG Export Plug-In . SVG Version: 6.00 Build 0)  -->
<svg version="1.1" id="Capa_1" xmlns="http://www.w3.org/2000/svg" xmlns:xlink="http://www.w3.org/1999/xlink" x="0px" y="0px"
	 viewBox="0 0 62.4 72.3" style="enable-background:new 0 0 62.4 72.3;" xml:space="preserve">
<style type="text/css">
	.st0{fill:#F96D00;}
</style>
<path class="st0" d="M57.7,25.1c-1.7,0.4-3.4,0.9-5.1,1.3c-0.1-0.3-0.2-0.7-0.3-1.1c-0.8-2.5-1.9-4.9-3.6-7
	c-2.2-2.7-4.9-4.6-8.1-5.7c-1.8-0.7-3.6-1-5.5-1.2c-0.9-0.1-1.7-0.2-2.7-0.2c-3.6,0-7.2,0.6-10.5,2.2c-3.2,1.6-5.6,4.1-7.3,7.1
	c-1.2,2.2-2.1,4.7-2.6,7.2c-0.5,2.5-0.7,5.1-0.7,7.6c0,3.7,0.3,7.3,1.3,10.9c0.7,2.8,1.8,5.3,3.5,7.5c2.1,2.7,4.8,4.6,8,5.7
	c2.2,0.7,4.6,1.2,6.9,1.2c2.1,0.1,4.1,0,6-0.3c3.6-0.6,6.9-2.1,9.5-4.8c1.7-1.7,2.8-3.6,3.2-5.9c0.5-2.6,0.2-5-1.2-7.2
	c-0.8-1.3-2-2.3-3.2-3.1h-0.1c-0.1,0.5-0.2,1-0.2,1.5c-0.4,2.2-1.2,4.3-2.6,6.2c-1.7,2.3-4.1,3.8-6.9,4.4c-2.5,0.5-5,0.5-7.4-0.2
	c-1.8-0.6-3.4-1.4-4.7-2.7c-1.4-1.4-2.3-3.1-2.6-5.2c-0.2-2,0-4,0.9-5.8c0.9-1.7,2.2-3,3.9-4c1.6-0.9,3.2-1.5,5.1-1.7
	c2.2-0.3,4.5-0.3,6.8-0.2c0.8,0.1,1.7,0.2,2.4,0.2H40c-0.1-0.5-0.2-1-0.3-1.4c-0.3-1.1-0.7-2.1-1.5-2.9c-0.9-1.1-2.1-1.7-3.5-2
	c-2-0.4-4-0.4-5.9,0.4c-1.2,0.5-2.2,1.3-3.1,2.4c-0.1,0.1-0.1,0.2-0.2,0.2c-1.4-1-2.9-2-4.3-3c0.3-0.5,0.7-0.9,1.1-1.4
	c2-2.2,4.5-3.6,7.5-4.1c2.5-0.4,5-0.2,7.4,0.6c3.5,1.2,5.7,3.6,7,6.9c0.7,1.7,1,3.5,1.2,5.2c0,0.4,0.2,0.7,0.6,0.8
	c1.8,0.8,3.6,1.9,5,3.4c2,2,3.3,4.4,3.9,7.1c1.1,5.2-0.2,9.9-3.5,13.9c-2.9,3.5-6.6,5.8-11,7c-2.1,0.5-4.1,0.8-6.3,0.9
	c-1.8,0.1-3.6,0-5.5-0.2c-3.6-0.4-7.1-1.4-10.3-3.3c-1.4-0.8-2.7-1.8-4-3c-3-2.7-4.9-6-6.2-9.8c-0.7-2.2-1.3-4.6-1.7-6.9
	C6.2,40.5,6,38.1,6,35.7c0.1-4.2,0.6-8.4,1.8-12.4c1.1-3.4,2.7-6.5,5.1-9.2c2.6-3,5.7-5.1,9.4-6.3c2.4-0.8,4.8-1.2,7.3-1.5
	c2.2-0.2,4.4-0.2,6.6,0.2c2.9,0.3,5.7,1.1,8.4,2.3c4.1,2,7.4,4.9,9.8,8.8c1.4,2.3,2.5,4.8,3.1,7.5C57.6,25,57.7,25.1,57.7,25.1
	C57.7,25.1,57.7,25.1,57.7,25.1z M41.9,35.8c-0.9-0.1-1.8-0.3-2.7-0.4c-1.6-0.2-3.3-0.3-5-0.2c-1.5,0-3.1,0.2-4.6,0.6
	c-1.4,0.4-2.8,1.1-3.8,2.2c-1.6,1.8-1.7,4.5-0.2,6.3c0.9,1.1,2,1.7,3.3,2.1c1.7,0.5,3.5,0.6,5.3,0.3c2.6-0.4,4.6-1.7,5.8-4.1
	c1.9-3.9,1.6-5.9,1.4-4.4C41.7,37.5,41.8,36.7,41.9,35.8C41.9,35.8,41.9,35.8,41.9,35.8z"/>
</svg>
