<?xml version="1.0" encoding="UTF-8"?>
<!DOCTYPE svg PUBLIC "-//W3C//DTD SVG 1.1//EN" "http://www.w3.org/Graphics/SVG/1.1/DTD/svg11.dtd">
<svg xmlns="http://www.w3.org/2000/svg" version="1.1" width="500px" height="500px" style="shape-rendering:geometricPrecision; text-rendering:geometricPrecision; image-rendering:optimizeQuality; fill-rule:evenodd; clip-rule:evenodd" xmlns:xlink="http://www.w3.org/1999/xlink">
<g><path style="opacity:0.982" fill="#fefffe" d="M 299.5,122.5 C 322.015,120.028 341.181,126.694 357,142.5C 371.319,139.508 384.652,134.174 397,126.5C 393.751,140.812 385.918,152.312 373.5,161C 384.659,160.058 395.159,156.892 405,151.5C 405.167,152.167 405.333,152.833 405.5,153.5C 397.794,166.185 387.794,176.852 375.5,185.5C 375.967,234.638 360.633,277.971 329.5,315.5C 287.864,361.45 235.864,381.616 173.5,376C 144.327,373.112 117.66,363.612 93.5,347.5C 127.666,350.5 158.666,342 186.5,322C 158.971,318.848 139.805,304.682 129,279.5C 128.333,278.167 128.333,276.833 129,275.5C 132.918,276.151 136.918,276.484 141,276.5C 145.344,276.638 149.511,276.138 153.5,275C 123.307,264.631 107.307,243.465 105.5,211.5C 110.468,213.313 115.468,215.146 120.5,217C 124.122,218.106 127.789,218.439 131.5,218C 106.141,195.839 99.9746,169.005 113,137.5C 113.779,136.272 114.779,135.272 116,134.5C 150.172,174.337 193.672,196.337 246.5,200.5C 242.492,172.672 251.492,150.172 273.5,133C 281.695,128.06 290.361,124.56 299.5,122.5 Z"/></g>
</svg>
