<?xml version="1.0" encoding="utf-8"?>
<!-- Generator: Adobe Illustrator 27.4.0, SVG Export Plug-In . SVG Version: 6.00 Build 0)  -->
<svg version="1.1" id="Layer_1" xmlns="http://www.w3.org/2000/svg" xmlns:xlink="http://www.w3.org/1999/xlink" x="0px" y="0px"
	 width="500px" height="500px" viewBox="0 0 500 500" style="enable-background:new 0 0 500 500;" xml:space="preserve">
<style type="text/css">
	.st0{opacity:0.876;fill-rule:evenodd;clip-rule:evenodd;fill:#86B13E;enable-background:new    ;}
	.st1{opacity:0.867;fill-rule:evenodd;clip-rule:evenodd;fill:#86B13E;enable-background:new    ;}
	.st2{opacity:0.86;fill-rule:evenodd;clip-rule:evenodd;fill:#86B13E;enable-background:new    ;}
	.st3{opacity:0.858;fill-rule:evenodd;clip-rule:evenodd;fill:#86B13E;enable-background:new    ;}
</style>
<g>
	<path class="st0" d="M243.5,74.5c12.5-1.8,21.7,2.8,27.5,14c3.6,6.5,5.6,13.5,6,21c0.8,23.2,0.7,46.4-0.5,69.5
		c34.8,19.6,69.8,38.9,105,58c4.3,3.3,7.5,7.5,9.5,12.5c0.7,10,0.7,20,0,30c-2.8,2-6,2.5-9.5,1.5c-33.7-5.6-67.4-11.5-101-17.5
		c-2.1,14.1-3.5,28.3-4,42.5c10,4.7,20,9.3,30,14c6.4,6.3,8.7,13.9,7,23c-0.2,4.5-0.3,9-0.5,13.5c-2.8,2-6,2.5-9.5,1.5
		c-17.8-3.2-35.6-6.1-53.5-8.5c-19.4,2.7-38.7,5.7-58,9c-2.7,0.3-4.7-0.7-6-3c-0.7-8-0.7-16,0-24c1.2-5.2,4.1-9.4,8.5-12.5
		c9-4.2,18-8.3,27-12.5c1-14.4,0.2-28.8-2.5-43c-33.4,6-66.9,11.8-100.5,17.5c-3.3,0.8-6.4,0.6-9.5-0.5c-0.7-10.7-0.7-21.3,0-32
		c1.4-4.3,3.9-7.8,7.5-10.5c35-19.2,70-38.3,105-57.5c0.8-25.3,1.3-50.7,1.5-76C225.2,91.1,232,81.1,243.5,74.5z M248.5,83.5
		c7,0.8,11.8,4.5,14.5,11c3,8,4.5,16.4,4.5,25c-1.5,21.7-1.3,43.4,0.5,65c1.9,2.2,4,4,6.5,5.5c34.7,18.3,69,37.2,103,56.5
		c1.4,1.5,2.5,3.2,3.5,5c1.3,6.3,1.8,12.6,1.5,19c-35.6-5.6-71.1-11.6-106.5-18c-2,0.5-3.6,1.5-5,3c-2.4,16.8-3.9,33.6-4.5,50.5
		c0.6,3.1,1.9,5.7,4,8c10,4.7,20,9.3,30,14c0.8,0.8,1.7,1.7,2.5,2.5c0.5,5.7,0.7,11.3,0.5,17c-17.9-2.7-35.7-5.7-53.5-9
		c-18.1,3.4-36.3,6.4-54.5,9c-0.2-5,0-10,0.5-15c0.5-1,1-2,1.5-3c9.6-5.5,19.6-10.3,30-14.5c2.2-1.2,3.7-3.1,4.5-5.5
		c0.6-17.1-0.4-34.1-3-51c-0.3-2.3-1.5-4.2-3.5-5.5c-36,5.8-72,11.6-108,17.5c-0.2-5.7,0-11.3,0.5-17c0.6-3,2.1-5.5,4.5-7.5
		c30.7-16.7,61.3-33.3,92-50c5.6-3.4,11.1-6.9,16.5-10.5c1.3-26.6,2-53.2,2-80C234.6,95.3,239.7,88,248.5,83.5z"/>
</g>
<g>
	<path class="st1" d="M248.5,365.5c2.5-0.2,4.3,0.8,5.5,3c0.7,18.3,0.7,36.7,0,55c-3.5,2.9-6.5,2.6-9-1c-0.7-17.7-0.7-35.3,0-53
		C245.7,367.6,246.9,366.3,248.5,365.5z"/>
</g>
<g>
	<path class="st2" d="M213.5,381.5c2.9-0.4,5,0.6,6.5,3c0.7,13,0.7,26,0,39c-3,2.7-6,2.7-9,0c-0.7-13.3-0.7-26.7,0-40
		C212,382.9,212.8,382.3,213.5,381.5z"/>
</g>
<g>
	<path class="st3" d="M281.5,381.5c3.7-0.8,6.2,0.6,7.5,4c0.7,12,0.7,24,0,36c-0.1,2.9-1.6,4.3-4.5,4c-1.9,0.1-3.4-0.6-4.5-2
		c-0.7-13.3-0.7-26.7,0-40C280.7,383,281.2,382.3,281.5,381.5z"/>
</g>
</svg>
