<?xml version="1.0" encoding="utf-8"?>
<!-- Generator: Adobe Illustrator 27.4.0, SVG Export Plug-In . SVG Version: 6.00 Build 0)  -->
<svg version="1.1" id="Layer_1" xmlns="http://www.w3.org/2000/svg" xmlns:xlink="http://www.w3.org/1999/xlink" x="0px" y="0px"
	 width="500px" height="500px" viewBox="0 0 500 500" style="enable-background:new 0 0 500 500;" xml:space="preserve">
<style type="text/css">
	.st0{opacity:0.935;fill-rule:evenodd;clip-rule:evenodd;fill:#FFFFFF;enable-background:new    ;}
	.st1{opacity:0.878;fill-rule:evenodd;clip-rule:evenodd;fill:#FFFFFF;enable-background:new    ;}
	.st2{opacity:0.887;fill-rule:evenodd;clip-rule:evenodd;fill:#FFFFFF;enable-background:new    ;}
	.st3{opacity:0.905;fill-rule:evenodd;clip-rule:evenodd;fill:#FFFFFF;enable-background:new    ;}
	.st4{opacity:0.842;fill-rule:evenodd;clip-rule:evenodd;fill:#FFFFFF;enable-background:new    ;}
</style>
<g>
	<path class="st0" d="M244.5,75.5c4,0,8,0,12,0c0,8,0,16,0,24c-4,0-8,0-12,0C244.5,91.5,244.5,83.5,244.5,75.5z"/>
</g>
<g>
	<path class="st1" d="M182.5,94.5c1.1-0.1,2.1,0,3,0.5c5.4,5.4,10.7,10.7,16,16c-2.8,3-5.8,5.8-9,8.5c-6-5.3-11.7-11-17-17
		C178.6,100.4,180.9,97.7,182.5,94.5z"/>
</g>
<g>
	<path class="st2" d="M315.5,94.5c3.6,2.2,6.9,4.9,10,8c-5.3,6-11,11.7-17,17c-3.2-2.7-6.2-5.5-9-8.5
		C305,105.7,310.3,100.2,315.5,94.5z"/>
</g>
<g>
	<path class="st3" d="M216.5,121.5c13.1-1.5,24.4,2.1,34,11c16.1-13.6,32.8-14.4,50-2.5c10.2,13.5,11.7,28,4.5,43.5
		c-6,11.3-13.5,21.5-22.5,30.5c-9.1,8.4-18.8,16.1-29,23c-2,0.7-4,0.7-6,0c-17.5-11.8-32.6-26-45.5-42.5c-9.9-13.8-12.5-28.8-8-45
		C199,130.3,206.5,124.3,216.5,121.5z M217.5,134.5c13.4-1.6,23.1,3.5,29,15.5c3.5,1.9,6.6,1.4,9.5-1.5
		c6.6-12.5,16.8-16.7,30.5-12.5c8.7,5.5,11.8,13.3,9.5,23.5c-2.5,9.3-6.8,17.7-13,25c-9.8,11-20.6,20.6-32.5,29
		c-18.2-12.3-32.7-28-43.5-47c-2.8-7.2-3.1-14.6-1-22C208.8,139.8,212.7,136.5,217.5,134.5z"/>
</g>
<g>
	<path class="st4" d="M150.5,156.5c8.3,0,16.7,0,25,0c0,4.3,0,8.7,0,13c-8.3,0-16.7,0-25,0C150.5,165.2,150.5,160.8,150.5,156.5z"/>
</g>
<g>
	<path class="st4" d="M325.5,156.5c8.3,0,16.7,0,25,0c0,4.3,0,8.7,0,13c-8.3,0-16.7,0-25,0C325.5,165.2,325.5,160.8,325.5,156.5z"/>
</g>
<g>
	<path class="st3" d="M149.5,249.5c8.7-0.2,17.3,0,26,0.5c1.5,0.6,2.8,1.4,4,2.5c3.9,13.5,9.1,26.5,15.5,39
		c6.8,10.5,13.8,20.8,21,31c1.9,1.9,4,2.7,6.5,2.5c-12.9-20.7-9.6-38.3,10-53c21.8-9.5,38.6-4,50.5,16.5c5.1,13,3.6,25.1-4.5,36.5
		c3.8-0.2,6.6-2,8.5-5.5c7.2-9.7,13.8-19.7,20-30c5.9-12.6,11-25.5,15.5-38.5c9.6-1.6,19.2-1.9,29-1c1.4,0.5,2.6,1.3,3.5,2.5
		c-0.8,25.9-8.2,49.9-22,72c-11.3,16.9-22.9,33.6-35,50c-0.5,17-0.7,34-0.5,51c-4.3,0-8.7,0-13,0c-0.5-18.7,0-37.4,1.5-56
		c13.2-18.8,26.2-37.8,39-57c8.9-15.6,14.7-32.3,17.5-50c-4,0-8,0-12,0c-1.8,10.6-5.3,20.6-10.5,30c-8.1,14.3-17.2,27.8-27.5,40.5
		c-3.1,2.2-6.4,3.9-10,5c-21.3,0.7-42.7,0.7-64,0c-3.6-1.1-6.9-2.8-10-5c-17.9-20.3-30.7-43.4-38.5-69.5c-3.7-1-7.6-1.3-11.5-1
		c4,24.2,13.1,46.2,27.5,66c9.7,13.7,19.3,27.3,29,41c0.5,18.7,0.7,37.3,0.5,56c-4.3,0-8.7,0-13,0c0.2-17.3,0-34.7-0.5-52
		c-12-17.3-24-34.7-36-52c-12.5-21-19.5-43.7-21-68C146.4,251.9,147.9,250.6,149.5,249.5z M245.5,280.5c16.4-1.1,25.7,6.4,28,22.5
		c-4.4,20.5-16.4,26.9-36,19c-13.3-12.7-13.3-25.3,0-38C240.2,282.5,242.8,281.4,245.5,280.5z"/>
</g>
</svg>
