<?xml version="1.0" encoding="utf-8"?>
<!-- Generator: Adobe Illustrator 27.4.0, SVG Export Plug-In . SVG Version: 6.00 Build 0)  -->
<svg version="1.1" id="Layer_1" xmlns="http://www.w3.org/2000/svg" xmlns:xlink="http://www.w3.org/1999/xlink" x="0px" y="0px"
	 width="90px" height="90px" viewBox="0 0 90 90" style="enable-background:new 0 0 90 90;" xml:space="preserve">
<style type="text/css">
	.st0{opacity:0.971;fill-rule:evenodd;clip-rule:evenodd;fill:#F96D00;enable-background:new    ;}
	.st1{opacity:0.974;fill-rule:evenodd;clip-rule:evenodd;fill:#F96D00;enable-background:new    ;}
</style>
<g>
	<path class="st0" d="M43.6,9.8c13.5-0.1,23.9,5.4,31.3,16.5c5.3,9,6.5,18.6,3.7,28.7c-4,11.7-11.8,19.4-23.5,23.2
		c-9.3,2.6-18.1,1.6-26.6-2.9c-6.1,1.6-12.2,3.3-18.3,4.8c-0.1,0-0.2-0.1-0.3-0.1c1.7-5.9,3.3-11.9,5-17.8C9.4,52,8.7,41.6,13,30.9
		C19.2,18.1,29.4,11.1,43.6,9.8z M44.6,15.8c11.3,0.3,19.9,5.2,25.7,14.8c5,9.4,5,18.8,0,28.2C65.5,67.1,58.2,72,48.6,73.4
		c-7,0.7-13.4-0.8-19.3-4.5c-3.6,1-7.2,1.9-10.8,2.8c0.9-3.5,1.8-6.9,2.8-10.4c-5.8-9.1-6.6-18.7-2.4-28.7
		C24.3,22.2,32.9,16.6,44.6,15.8z"/>
</g>
<g>
	<path class="st1" d="M32.2,28.5c1.1,0,2.2,0,3.2,0.2c0.6,0.5,1,1.2,1.2,2c0.8,2,1.6,4,2.5,6c0.1,0.6,0.1,1.2-0.1,1.8
		c-0.8,1.1-1.6,2.2-2.5,3.2c-0.1,0.3-0.1,0.7,0,1c2.8,4.9,6.9,8.5,12.2,10.6c0.4,0.1,0.8,0.1,1.2-0.1c1.1-1.2,2.2-2.5,3.2-3.9
		c0.3-0.3,0.6-0.4,1-0.4c0.8,0.1,1.6,0.4,2.3,0.8c2.1,1,4.2,2.1,6.2,3.1c0.3,1.7,0,3.4-0.7,5c-2.5,3-5.7,4.2-9.6,3.6
		c-7-1.6-12.9-5.1-17.7-10.5c-2-2.3-3.8-4.8-5.4-7.3c-1.6-2.7-2.2-5.6-1.8-8.8c0.5-2.2,1.5-4,3.2-5.5C31.1,28.9,31.6,28.7,32.2,28.5
		z"/>
</g>
</svg>
